<svg width="32" height="40" viewBox="0 0 32 40" fill="none" xmlns="http://www.w3.org/2000/svg">
<path d="M16 0C11.7581 0.00491496 7.69133 1.6621 4.69183 4.60804C1.69234 7.55397 0.00502134 11.5481 1.70224e-05 15.7143C-0.00506354 19.1189 1.12726 22.4311 3.22329 25.1429C3.22329 25.1429 3.65965 25.7071 3.73092 25.7886L16 40L28.2749 25.7814C28.3389 25.7057 28.7767 25.1429 28.7767 25.1429L28.7782 25.1386C30.8732 22.428 32.005 19.1173 32 15.7143C31.995 11.5481 30.3077 7.55397 27.3082 4.60804C24.3087 1.6621 20.2419 0.00491496 16 0ZM16 21.4286C14.8493 21.4286 13.7244 21.0934 12.7676 20.4655C11.8108 19.8376 11.0651 18.9452 10.6247 17.901C10.1843 16.8569 10.0691 15.7079 10.2936 14.5995C10.5181 13.491 11.0722 12.4728 11.8859 11.6737C12.6996 10.8745 13.7363 10.3303 14.8649 10.1098C15.9935 9.88931 17.1634 10.0025 18.2265 10.435C19.2897 10.8675 20.1983 11.5999 20.8376 12.5396C21.4769 13.4793 21.8182 14.5841 21.8182 15.7143C21.8163 17.2292 21.2026 18.6816 20.1119 19.7528C19.0212 20.824 17.5425 21.4267 16 21.4286Z" fill="#5724A7"/>
</svg>
