<svg width="14" height="12" viewBox="0 0 14 12" fill="none" xmlns="http://www.w3.org/2000/svg">
<g id="arrow">
<path id="Vector" d="M7.34268 8.3583L12.3693 3.26669C12.4532 3.18173 12.5 3.06886 12.5 2.95149C12.5 2.83412 12.4532 2.72125 12.3693 2.63629L12.3636 2.63081C12.3229 2.58948 12.2739 2.55657 12.2197 2.53408C12.1654 2.5116 12.107 2.5 12.0479 2.5C11.9888 2.5 11.9304 2.5116 11.8761 2.53408C11.8218 2.55657 11.7729 2.58948 11.7322 2.63081L6.99905 7.42549L2.26781 2.63081C2.22713 2.58948 2.17816 2.55657 2.12389 2.53408C2.06961 2.5116 2.01117 2.5 1.95211 2.5C1.89304 2.5 1.8346 2.5116 1.78032 2.53408C1.72605 2.55657 1.67708 2.58948 1.63641 2.63081L1.63072 2.63629C1.54681 2.72125 1.5 2.83412 1.5 2.95149C1.5 3.06886 1.54681 3.18173 1.63072 3.26669L6.65732 8.3583C6.70153 8.40308 6.75469 8.43872 6.8136 8.46308C6.8725 8.48744 6.93592 8.5 7 8.5C7.06408 8.5 7.1275 8.48744 7.1864 8.46308C7.24531 8.43872 7.29848 8.40308 7.34268 8.3583Z" fill="#0A2B49"/>
</g>
</svg>
