<svg width="40" height="40" viewBox="0 0 40 40" fill="none" xmlns="http://www.w3.org/2000/svg">
<path fill-rule="evenodd" clip-rule="evenodd" d="M11.1161 10.8839C11.3505 10.6495 11.6668 10.5161 11.9953 10.5131C12.3238 10.51 12.6377 10.6377 12.8678 10.8678L30.2241 28.2241C30.4542 28.4542 30.5818 28.7681 30.5788 29.0966C30.5758 29.4251 30.4424 29.7413 30.208 29.9758C29.9736 30.2102 29.6573 30.3436 29.3288 30.3466C29.0003 30.3496 28.6865 30.222 28.4563 29.9918L11.1 12.6356C10.8699 12.4054 10.7423 12.0916 10.7453 11.7631C10.7483 11.4346 10.8817 11.1183 11.1161 10.8839Z" fill="#0A2B49"/>
<path fill-rule="evenodd" clip-rule="evenodd" d="M30.1161 11.1161C30.3505 11.3505 30.4839 11.6668 30.4869 11.9953C30.49 12.3238 30.3623 12.6377 30.1322 12.8678L12.7759 30.2241C12.5458 30.4542 12.2319 30.5818 11.9034 30.5788C11.5749 30.5758 11.2587 30.4424 11.0242 30.208C10.7898 29.9736 10.6564 29.6573 10.6534 29.3288C10.6504 29.0003 10.778 28.6865 11.0082 28.4563L28.3644 11.1C28.5946 10.8699 28.9084 10.7423 29.2369 10.7453C29.5654 10.7483 29.8817 10.8817 30.1161 11.1161Z" fill="#0A2B49"/>
</svg>
