<svg width="41" height="40" viewBox="0 0 41 40" fill="none" xmlns="http://www.w3.org/2000/svg">
<g clip-path="url(#clip0_3614_10153)">
<path d="M1.75 24.75C2.08152 24.75 2.39946 24.8817 2.63388 25.1161C2.8683 25.3505 3 25.6685 3 26V32.25C3 32.913 3.26339 33.5489 3.73223 34.0178C4.20107 34.4866 4.83696 34.75 5.5 34.75H35.5C36.163 34.75 36.7989 34.4866 37.2678 34.0178C37.7366 33.5489 38 32.913 38 32.25V26C38 25.6685 38.1317 25.3505 38.3661 25.1161C38.6005 24.8817 38.9185 24.75 39.25 24.75C39.5815 24.75 39.8995 24.8817 40.1339 25.1161C40.3683 25.3505 40.5 25.6685 40.5 26V32.25C40.5 33.5761 39.9732 34.8479 39.0355 35.7855C38.0979 36.7232 36.8261 37.25 35.5 37.25H5.5C4.17392 37.25 2.90215 36.7232 1.96447 35.7855C1.02678 34.8479 0.5 33.5761 0.5 32.25V26C0.5 25.6685 0.631696 25.3505 0.866117 25.1161C1.10054 24.8817 1.41848 24.75 1.75 24.75Z" fill="#0A2B49"/>
<path d="M19.6127 29.635C19.7288 29.7514 19.8667 29.8438 20.0186 29.9068C20.1705 29.9698 20.3333 30.0022 20.4977 30.0022C20.6621 30.0022 20.8249 29.9698 20.9768 29.9068C21.1286 29.8438 21.2666 29.7514 21.3827 29.635L28.8827 22.135C29.1174 21.9003 29.2493 21.5819 29.2493 21.25C29.2493 20.9181 29.1174 20.5997 28.8827 20.365C28.648 20.1303 28.3296 19.9984 27.9977 19.9984C27.6657 19.9984 27.3474 20.1303 27.1127 20.365L21.7477 25.7325V3.75C21.7477 3.41848 21.616 3.10054 21.3816 2.86612C21.1471 2.6317 20.8292 2.5 20.4977 2.5C20.1662 2.5 19.8482 2.6317 19.6138 2.86612C19.3794 3.10054 19.2477 3.41848 19.2477 3.75V25.7325L13.8827 20.365C13.648 20.1303 13.3296 19.9984 12.9977 19.9984C12.6657 19.9984 12.3474 20.1303 12.1127 20.365C11.878 20.5997 11.7461 20.9181 11.7461 21.25C11.7461 21.5819 11.878 21.9003 12.1127 22.135L19.6127 29.635Z" fill="#0A2B49"/>
</g>
<defs>
<clipPath id="clip0_3614_10153">
<rect width="40" height="40" fill="white" transform="translate(0.5)"/>
</clipPath>
</defs>
</svg>
