<svg width="24" height="24" viewBox="0 0 24 24" fill="none" xmlns="http://www.w3.org/2000/svg">
<g clip-path="url(#clip0_2842_1055)">
<path d="M0 9.6001V19.2001C0 19.8366 0.252856 20.4471 0.702944 20.8972C1.15303 21.3472 1.76348 21.6001 2.4 21.6001H21.6C22.2365 21.6001 22.847 21.3472 23.2971 20.8972C23.7471 20.4471 24 19.8366 24 19.2001V9.6001L12 14.4001L0 9.6001Z" fill="#0A2B49"/>
<path d="M2.4 2.3999C1.76348 2.3999 1.15303 2.65276 0.702944 3.10285C0.252856 3.55293 0 4.16338 0 4.7999L0 7.1999L12 11.9999L24 7.1999V4.7999C24 4.16338 23.7471 3.55293 23.2971 3.10285C22.847 2.65276 22.2365 2.3999 21.6 2.3999H2.4Z" fill="#0A2B49"/>
</g>
<defs>
<clipPath id="clip0_2842_1055">
<rect width="24" height="24" fill="white"/>
</clipPath>
</defs>
</svg>
