<svg width="40" height="40" viewBox="0 0 40 40" fill="none" xmlns="http://www.w3.org/2000/svg">
<g clip-path="url(#clip0_2842_1078)">
<path d="M10.143 39.8585C7.76414 39.7503 6.4719 39.3545 5.61239 39.0192C4.4735 38.5758 3.66154 38.048 2.80679 37.1944C1.95203 36.3408 1.42301 35.5289 0.98196 34.39C0.646714 33.5305 0.25084 32.2382 0.142658 29.8594C0.0237763 27.288 0 26.5165 0 20.0018C0 13.4871 0.0261539 12.7167 0.141469 10.143C0.249651 7.76414 0.647903 6.47428 0.980771 5.61239C1.4242 4.4735 1.95322 3.66154 2.8056 2.8056C3.65917 1.95203 4.47113 1.42182 5.6112 0.980771C6.47071 0.645526 7.76295 0.249651 10.1418 0.141469C12.7144 0.0237763 13.4871 0 19.9994 0C26.5141 0 27.2845 0.0261539 29.8582 0.141469C32.237 0.249651 33.5269 0.647903 34.3888 0.980771C35.5277 1.42182 36.3396 1.95203 37.1944 2.8056C38.0492 3.65917 38.5758 4.47232 39.0192 5.6112C39.3545 6.47071 39.7503 7.76295 39.8585 10.1418C39.9762 12.7155 40 13.4859 40 20.0006C40 26.5129 39.9762 27.2856 39.8585 29.8594C39.7503 32.2382 39.3521 33.5305 39.0192 34.39C38.5758 35.5289 38.048 36.3408 37.1944 37.1944C36.3408 38.048 35.5277 38.5758 34.3888 39.0192C33.5293 39.3545 32.237 39.7503 29.8582 39.8585C27.2868 39.9762 26.5141 40 19.9994 40C13.4871 40 12.7144 39.9774 10.143 39.8585Z" fill="url(#paint0_radial_2842_1078)"/>
<path d="M10.143 39.8585C7.76414 39.7503 6.4719 39.3545 5.61239 39.0192C4.4735 38.5758 3.66154 38.048 2.80679 37.1944C1.95203 36.3408 1.42301 35.5289 0.98196 34.39C0.646714 33.5305 0.25084 32.2382 0.142658 29.8594C0.0237763 27.288 0 26.5165 0 20.0018C0 13.4871 0.0261539 12.7167 0.141469 10.143C0.249651 7.76414 0.647903 6.47428 0.980771 5.61239C1.4242 4.4735 1.95322 3.66154 2.8056 2.8056C3.65917 1.95203 4.47113 1.42182 5.6112 0.980771C6.47071 0.645526 7.76295 0.249651 10.1418 0.141469C12.7144 0.0237763 13.4871 0 19.9994 0C26.5141 0 27.2845 0.0261539 29.8582 0.141469C32.237 0.249651 33.5269 0.647903 34.3888 0.980771C35.5277 1.42182 36.3396 1.95203 37.1944 2.8056C38.0492 3.65917 38.5758 4.47232 39.0192 5.6112C39.3545 6.47071 39.7503 7.76295 39.8585 10.1418C39.9762 12.7155 40 13.4859 40 20.0006C40 26.5129 39.9762 27.2856 39.8585 29.8594C39.7503 32.2382 39.3521 33.5305 39.0192 34.39C38.5758 35.5289 38.048 36.3408 37.1944 37.1944C36.3408 38.048 35.5277 38.5758 34.3888 39.0192C33.5293 39.3545 32.237 39.7503 29.8582 39.8585C27.2868 39.9762 26.5141 40 19.9994 40C13.4871 40 12.7144 39.9774 10.143 39.8585Z" fill="url(#paint1_radial_2842_1078)"/>
<path d="M15.6677 20.0003C15.6677 17.607 17.6073 15.6664 20.0005 15.6664C22.3938 15.6664 24.3344 17.607 24.3344 20.0003C24.3344 22.3935 22.3938 24.3341 20.0005 24.3341C17.6073 24.3341 15.6677 22.3935 15.6677 20.0003ZM13.3249 20.0003C13.3249 23.6872 16.3136 26.6759 20.0005 26.6759C23.6875 26.6759 26.6761 23.6872 26.6761 20.0003C26.6761 16.3133 23.6875 13.3247 20.0005 13.3247C16.3136 13.3247 13.325 16.3131 13.325 20.0003M25.3804 13.06C25.3803 13.3685 25.4717 13.6702 25.643 13.9268C25.8143 14.1834 26.0579 14.3835 26.3429 14.5017C26.6279 14.6199 26.9416 14.6509 27.2443 14.5908C27.5469 14.5307 27.8249 14.3823 28.0432 14.1642C28.2615 13.9461 28.4102 13.6682 28.4705 13.3656C28.5308 13.063 28.5 12.7493 28.3821 12.4642C28.2641 12.1791 28.0642 11.9353 27.8078 11.7638C27.5513 11.5923 27.2497 11.5007 26.9411 11.5005H26.9405C26.5269 11.5007 26.1303 11.6651 25.8378 11.9575C25.5453 12.2499 25.3808 12.6464 25.3804 13.06ZM14.7483 30.5825C13.4808 30.5248 12.7919 30.3136 12.3341 30.1353C11.7271 29.899 11.294 29.6175 10.8387 29.1628C10.3834 28.7081 10.1015 28.2755 9.86625 27.6685C9.68778 27.2109 9.47665 26.5218 9.41903 25.2543C9.35601 23.8839 9.34342 23.4722 9.34342 20.0005C9.34342 16.5287 9.35705 16.1182 9.41903 14.7467C9.47676 13.4792 9.68944 12.7914 9.86625 12.3325C10.1025 11.7255 10.384 11.2924 10.8387 10.8371C11.2934 10.3818 11.7261 10.0999 12.3341 9.86465C12.7917 9.68618 13.4808 9.47505 14.7483 9.41744C16.1187 9.35441 16.5303 9.34183 20.0005 9.34183C23.4707 9.34183 23.8828 9.35524 25.2543 9.41764C26.5218 9.47537 27.2096 9.68806 27.6685 9.86486C28.2755 10.1001 28.7086 10.3826 29.1639 10.8373C29.6192 11.292 29.9001 11.7257 30.1363 12.3327C30.3148 12.7903 30.5259 13.4794 30.5836 14.7469C30.6466 16.1184 30.6592 16.5289 30.6592 20.0007C30.6592 23.4725 30.6466 23.883 30.5836 25.2545C30.5258 26.522 30.3137 27.2109 30.1363 27.6687C29.9001 28.2757 29.6186 28.7088 29.1639 29.163C28.7092 29.6173 28.2755 29.8992 27.6685 30.1355C27.2109 30.314 26.5218 30.5251 25.2543 30.5827C23.8839 30.6457 23.4723 30.6583 20.0005 30.6583C16.5288 30.6583 16.1183 30.6457 14.7483 30.5827M14.6407 7.07849C13.2567 7.14151 12.311 7.36096 11.4851 7.68234C10.6303 8.01421 9.90567 8.45945 9.18211 9.18187C8.45855 9.90428 8.01446 10.629 7.68258 11.4848C7.36121 12.3112 7.14176 13.2564 7.07873 14.6404C7.01466 16.0266 7 16.4698 7 20.0003C7 23.5308 7.01466 23.974 7.07873 25.3601C7.14176 26.7442 7.36121 27.6893 7.68258 28.5157C8.01446 29.3705 8.45866 30.0966 9.18211 30.8187C9.90556 31.5408 10.6292 31.9854 11.4851 32.3182C12.3125 32.6396 13.2567 32.859 14.6407 32.9221C16.0276 32.9851 16.47 33.0008 20.0005 33.0008C23.531 33.0008 23.9742 32.9861 25.3604 32.9221C26.7445 32.859 27.6895 32.6396 28.516 32.3182C29.3708 31.9854 30.0954 31.5411 30.8189 30.8187C31.5425 30.0963 31.9856 29.3705 32.3185 28.5157C32.6398 27.6893 32.8603 26.7441 32.9223 25.3601C32.9853 23.9729 33 23.5308 33 20.0003C33 16.4698 32.9853 16.0266 32.9223 14.6404C32.8593 13.2563 32.6398 12.3107 32.3185 11.4848C31.9856 10.63 31.5413 9.90542 30.8189 9.18187C30.0965 8.45831 29.3708 8.01421 28.517 7.68234C27.6895 7.36096 26.7444 7.14047 25.3614 7.07849C23.975 7.01515 23.5321 6.99976 20.0021 6.99976C16.4721 6.99976 16.0281 7.01442 14.6412 7.07849" fill="white"/>
</g>
<defs>
<radialGradient id="paint0_radial_2842_1078" cx="0" cy="0" r="1" gradientUnits="userSpaceOnUse" gradientTransform="translate(2.58876 39.1237) scale(50.7852)">
<stop offset="0.09" stop-color="#FA8F21"/>
<stop offset="0.78" stop-color="#D82D7E"/>
</radialGradient>
<radialGradient id="paint1_radial_2842_1078" cx="0" cy="0" r="1" gradientUnits="userSpaceOnUse" gradientTransform="translate(27.7066 37.8393) scale(44.6914)">
<stop offset="0.64" stop-color="#8C3AAA" stop-opacity="0"/>
<stop offset="1" stop-color="#8C3AAA"/>
</radialGradient>
<clipPath id="clip0_2842_1078">
<rect width="40" height="40" rx="20" fill="white"/>
</clipPath>
</defs>
</svg>
