<svg width="158" height="120" viewBox="0 0 158 120" fill="none" xmlns="http://www.w3.org/2000/svg">
<path d="M16.511 99.7095C16.511 103.078 14.3197 104.896 12.7707 105.501L16.9266 113.829H12.3173L8.72812 106.145H5.06337V113.829H1.05859V93.1984H9.29484C14.1686 93.1605 16.511 96.0375 16.511 99.7095ZM8.61479 103.041C10.9194 103.041 12.2795 101.905 12.2795 99.7852C12.2795 97.514 10.7683 96.3782 8.69034 96.3782H5.06337V103.041H8.61479Z" fill="#0A2B49"/>
<path d="M23.8784 106.258C23.8784 109.097 25.5787 110.687 28.1478 110.687C30.679 110.687 32.3792 109.059 32.3792 106.258V93.1602H36.4595V106.826C36.4595 111.179 33.3237 114.17 28.1478 114.17C22.9718 114.17 19.8359 111.179 19.8359 106.826V93.1602H23.9162V106.258H23.8784Z" fill="#0A2B49"/>
<path d="M43.2208 107.924C43.3719 109.514 44.8077 110.953 47.4902 110.953C49.9836 110.953 51.3815 109.817 51.3815 108.113C51.3815 106.675 50.3236 105.918 48.2079 105.426L45.0344 104.669C42.2008 104.025 39.8205 102.435 39.8205 98.9904C39.8205 94.9778 43.2586 92.7444 47.4902 92.7444C51.9104 92.7444 55.084 95.1671 55.1218 98.8769H51.306C51.1549 97.3248 49.9458 95.962 47.4902 95.962C45.2988 95.962 43.9008 97.022 43.9008 98.6876C43.9008 99.9368 44.8832 100.77 46.7344 101.186L49.9458 101.943C53.006 102.625 55.4996 104.063 55.4996 107.773C55.4996 111.823 52.2882 114.246 47.339 114.246C41.3696 114.246 39.405 110.877 39.3672 108H43.2208V107.924Z" fill="#0A2B49"/>
<path d="M60.6393 109.438C61.9238 109.438 62.9816 110.498 62.9816 111.785C62.9816 113.072 61.9238 114.132 60.6393 114.132C59.3547 114.132 58.2969 113.072 58.2969 111.785C58.2969 110.498 59.3547 109.438 60.6393 109.438Z" fill="#0A2B49"/>
<path d="M69.4792 107.924C69.6303 109.514 71.0661 110.953 73.7486 110.953C76.2421 110.953 77.64 109.817 77.64 108.113C77.64 106.675 76.5822 105.918 74.4664 105.426L71.2928 104.669C68.4592 104.025 66.079 102.435 66.079 98.9904C66.079 94.9778 69.517 92.7444 73.7486 92.7444C78.1689 92.7444 81.3425 95.1671 81.3802 98.8769H77.5644C77.4133 97.3248 76.2044 95.962 73.7486 95.962C71.5572 95.962 70.1594 97.022 70.1594 98.6876C70.1594 99.9368 71.1417 100.77 72.9928 101.186L76.2044 101.943C79.2646 102.625 81.7202 104.063 81.7202 107.773C81.7202 111.823 78.5089 114.246 73.5597 114.246C67.5903 114.246 65.6256 110.877 65.5878 108H69.4792V107.924Z" fill="#0A2B49"/>
<path d="M88.899 113.791V96.567H83.043V93.1602H98.8354V96.567H92.9793V113.791H88.899Z" fill="#0A2B49"/>
<path d="M105.447 106.258C105.447 109.097 107.147 110.687 109.716 110.687C112.247 110.687 113.948 109.059 113.948 106.258V93.1602H118.028V106.826C118.028 111.179 114.892 114.17 109.716 114.17C104.54 114.17 101.404 111.179 101.404 106.826V93.1602H105.485V106.258H105.447Z" fill="#0A2B49"/>
<path d="M129.626 93.1602C135.897 93.1602 138.844 96.9078 138.844 103.419C138.844 109.968 135.86 113.791 129.626 113.791H122.107V93.1602H129.626ZM126.188 110.46H129.097C132.535 110.46 134.651 108.718 134.651 103.494C134.651 99.2168 133.177 96.4913 129.097 96.4913H126.188V110.46Z" fill="#0A2B49"/>
<path d="M145.911 113.791V105.955L139.035 93.1602H143.531L147.914 101.904H148.065L152.485 93.1602H156.905L149.992 105.879V113.791H145.911Z" fill="#0A2B49"/>
<path d="M32.2269 13.8543C32.1514 13.8543 32.038 13.8543 31.9625 13.8165L28.0709 12.3023L24.1795 13.8165C23.9151 13.93 23.6506 13.8543 23.4239 13.7029C23.1973 13.5515 23.1217 13.2486 23.1595 12.9837L23.6884 9.23603L20.7415 6.09407C20.5526 5.86693 20.477 5.60195 20.5904 5.33698C20.7037 5.072 20.9304 4.88272 21.1948 4.84486L25.3507 4.35275L27.3531 0.605111C27.4665 0.377982 27.7309 0.226562 28.0331 0.226562C28.2976 0.226562 28.562 0.377982 28.7131 0.605111L30.7156 4.35275L34.8714 4.84486C35.1361 4.88272 35.4005 5.072 35.4761 5.33698C35.5894 5.60195 35.5139 5.9048 35.325 6.09407L32.378 9.23603L32.9069 12.9837C32.9447 13.2486 32.8314 13.5136 32.6425 13.7029C32.5669 13.7786 32.378 13.8543 32.2269 13.8543ZM28.0331 10.6745C28.1087 10.6745 28.222 10.6745 28.2976 10.7124L31.2445 11.8859L30.8667 9.08461C30.8289 8.85748 30.9045 8.63035 31.0556 8.44107L33.2092 6.09407L30.1489 5.71553C29.9222 5.67766 29.6956 5.52625 29.5822 5.33698L28.0331 2.46001L26.4842 5.33698C26.3709 5.5641 26.1442 5.71553 25.9175 5.71553L22.8573 6.09407L25.0107 8.44107C25.1618 8.5925 25.2373 8.85748 25.1995 9.08461L24.784 11.8859L27.7309 10.7124C27.882 10.7124 27.9576 10.6745 28.0331 10.6745Z" fill="#0A2B49"/>
<path d="M37.3651 40.5805C37.0628 40.5805 36.7606 40.3912 36.6473 40.0506L28.0332 14.7635L19.4569 40.0884C19.3058 40.467 18.8902 40.6942 18.5124 40.5427C18.1346 40.3912 17.9079 39.9749 18.0591 39.5962L27.3532 12.1894C27.4665 11.8865 27.7309 11.6594 28.071 11.6594C28.411 11.6594 28.6754 11.8487 28.7888 12.1894L38.0829 39.5962C38.234 39.9749 38.0073 40.4292 37.6295 40.5427C37.5162 40.5805 37.4406 40.5805 37.3651 40.5805Z" fill="#0A2B49"/>
<path d="M39.3675 64.126C38.952 64.126 38.6119 63.7854 38.6119 63.3691V40.0504L35.9295 41.3753C35.7028 41.4888 35.4761 41.4888 35.2495 41.3753L31.8114 39.6719L28.3734 41.3753C28.1465 41.4888 27.9198 41.4888 27.6932 41.3753L24.2551 39.6719L20.8171 41.3753C20.5904 41.4888 20.3637 41.4888 20.1371 41.3753L17.4546 40.0504V63.3691C17.4546 63.7854 17.1146 64.126 16.699 64.126C16.2834 64.126 15.9434 63.7854 15.9434 63.3691V38.8391C15.9434 38.5741 16.0945 38.347 16.2834 38.1955C16.5101 38.0441 16.7745 38.0441 17.0012 38.1576L20.4393 39.861L23.8773 38.1576C24.104 38.0441 24.3307 38.0441 24.5574 38.1576L27.9954 39.861L31.4336 38.1576C31.6603 38.0441 31.887 38.0441 32.1136 38.1576L35.5517 39.861L38.9897 38.1576C39.2164 38.0441 39.5186 38.0441 39.7075 38.1955C39.9342 38.347 40.0475 38.5741 40.0475 38.8391V63.3691C40.1231 63.7854 39.7831 64.126 39.3675 64.126Z" fill="#0A2B49"/>
<path d="M46.8862 86.7633C46.4707 86.7633 46.1307 86.4227 46.1307 86.0064V64.5804L43.4482 65.9053C43.2215 66.019 42.9948 66.019 42.768 65.9053L39.33 64.2019L35.8919 65.9053C35.6652 66.019 35.4386 66.019 35.2119 65.9053L31.7738 64.2019L28.3358 65.9053C28.1091 66.019 27.8825 66.019 27.6556 65.9053L24.2176 64.2019L20.7795 65.9053C20.5528 66.019 20.3262 66.019 20.0995 65.9053L16.6614 64.2019L13.2234 65.9053C12.9967 66.019 12.77 66.019 12.5433 65.9053L9.86085 64.5804V86.0064C9.86085 86.4227 9.52082 86.7633 9.10524 86.7633C8.68964 86.7633 8.34961 86.4227 8.34961 86.0064V63.3691C8.34961 63.1041 8.50074 62.877 8.68964 62.7255C8.91633 62.5742 9.1808 62.5742 9.40749 62.6877L12.8455 64.3912L16.2836 62.6877C16.5103 62.5742 16.737 62.5742 16.9637 62.6877L20.4017 64.3912L23.8398 62.6877C24.0664 62.5742 24.2931 62.5742 24.5198 62.6877L27.958 64.3912L31.3961 62.6877C31.6227 62.5742 31.8494 62.5742 32.0761 62.6877L35.5141 64.3912L38.9522 62.6877C39.1788 62.5742 39.4055 62.5742 39.6322 62.6877L43.0704 64.3912L46.5084 62.6877C46.7351 62.5742 47.0373 62.5742 47.2262 62.7255C47.4529 62.877 47.5662 63.1041 47.5662 63.3691V86.0064C47.6418 86.4227 47.3018 86.7633 46.8862 86.7633Z" fill="#0A2B49"/>
<path d="M28.0341 58.4478C24.4827 58.4478 21.6113 55.5709 21.6113 52.0125C21.6113 48.4542 24.4827 45.5771 28.0341 45.5771C31.5855 45.5771 34.4568 48.4542 34.4568 52.0125C34.4568 55.5709 31.5855 58.4478 28.0341 58.4478ZM28.0341 47.1292C25.3516 47.1292 23.1227 49.3248 23.1227 52.0505C23.1227 54.7381 25.3138 56.9715 28.0341 56.9715C30.7165 56.9715 32.9457 54.776 32.9457 52.0505C32.9457 49.3248 30.7543 47.1292 28.0341 47.1292Z" fill="#0A2B49"/>
<path d="M0.755618 86.7632C0.340028 86.7632 0 86.4225 0 86.006V78.4729C0 78.0565 0.340028 77.7158 0.755618 77.7158H9.21855C9.63413 77.7158 9.97416 78.0565 9.97416 78.4729C9.97416 78.8893 9.63413 79.2301 9.21855 79.2301H1.51124V86.006C1.51124 86.4225 1.17121 86.7632 0.755618 86.7632Z" fill="#0A2B49"/>
<path d="M0.755618 78.8137C0.340028 78.8137 0 78.473 0 78.0565V72.3783C0 71.962 0.340028 71.6212 0.755618 71.6212C1.17121 71.6212 1.51124 71.962 1.51124 72.3783V78.0565C1.51124 78.473 1.17121 78.8137 0.755618 78.8137Z" fill="#0A2B49"/>
<path d="M70.3104 78.8137C69.8948 78.8137 69.5548 78.473 69.5548 78.0565V72.3783C69.5548 71.962 69.8948 71.6212 70.3104 71.6212C70.7259 71.6212 71.0659 71.962 71.0659 72.3783V78.0565C71.0659 78.473 70.7259 78.8137 70.3104 78.8137Z" fill="#0A2B49"/>
<path d="M78.2439 78.8135C77.8283 78.8135 77.4883 78.4729 77.4883 78.0564V72.3782C77.4883 71.9619 77.8283 71.6211 78.2439 71.6211C78.6594 71.6211 78.9996 71.9619 78.9996 72.3782V78.0564C78.9996 78.4729 78.6972 78.8135 78.2439 78.8135Z" fill="#0A2B49"/>
<path d="M102.236 86.7632C101.82 86.7632 101.48 86.4225 101.48 86.006V79.2301H46.8864C46.4709 79.2301 46.1309 78.8893 46.1309 78.4729C46.1309 78.0565 46.4709 77.7158 46.8864 77.7158H102.236C102.651 77.7158 102.991 78.0565 102.991 78.4729V86.006C102.991 86.4225 102.651 86.7632 102.236 86.7632Z" fill="#0A2B49"/>
<path d="M102.234 78.8135C101.819 78.8135 101.479 78.4729 101.479 78.0564V72.3782C101.479 71.9619 101.819 71.6211 102.234 71.6211C102.65 71.6211 102.99 71.9619 102.99 72.3782V78.0564C102.99 78.4729 102.65 78.8135 102.234 78.8135Z" fill="#0A2B49"/>
<path d="M62.3767 78.8135C61.9611 78.8135 61.6211 78.4729 61.6211 78.0564V72.3782C61.6211 71.9619 61.9611 71.6211 62.3767 71.6211C62.7924 71.6211 63.1324 71.9619 63.1324 72.3782V78.0564C63.1324 78.4729 62.7924 78.8135 62.3767 78.8135Z" fill="#0A2B49"/>
<path d="M54.404 78.8135C53.9884 78.8135 53.6484 78.4729 53.6484 78.0564V72.3782C53.6484 71.9619 53.9884 71.6211 54.404 71.6211C54.8196 71.6211 55.1596 71.9619 55.1596 72.3782V78.0564C55.1596 78.4729 54.8574 78.8135 54.404 78.8135Z" fill="#0A2B49"/>
<path d="M16.7361 81.1231C16.3205 81.1231 15.9805 80.7825 15.9805 80.3662V74.6878C15.9805 74.2715 16.3205 73.9307 16.7361 73.9307C17.1517 73.9307 17.4917 74.2715 17.4917 74.6878V80.3662C17.4917 80.7825 17.1517 81.1231 16.7361 81.1231Z" fill="#0A2B49"/>
<path d="M24.2927 81.1231C23.8771 81.1231 23.5371 80.7825 23.5371 80.3662V74.6878C23.5371 74.2715 23.8771 73.9307 24.2927 73.9307C24.7083 73.9307 25.0483 74.2715 25.0483 74.6878V80.3662C25.0483 80.7825 24.7083 81.1231 24.2927 81.1231Z" fill="#0A2B49"/>
<path d="M31.8104 81.1231C31.3949 81.1231 31.0547 80.7825 31.0547 80.3662V74.6878C31.0547 74.2715 31.3949 73.9307 31.8104 73.9307C32.226 73.9307 32.566 74.2715 32.566 74.6878V80.3662C32.566 80.7825 32.226 81.1231 31.8104 81.1231Z" fill="#0A2B49"/>
<path d="M39.3671 81.1231C38.9513 81.1231 38.6113 80.7825 38.6113 80.3662V74.6878C38.6113 74.2715 38.9513 73.9307 39.3671 73.9307C39.7826 73.9307 40.1227 74.2715 40.1227 74.6878V80.3662C40.1227 80.7825 39.7826 81.1231 39.3671 81.1231Z" fill="#0A2B49"/>
<path d="M94.1502 78.8517C93.7346 78.8517 93.3946 78.5109 93.3946 78.0946V72.4164C93.3946 71.9999 93.7346 71.6593 94.1502 71.6593C94.5657 71.6593 94.9057 71.9999 94.9057 72.4164V78.0946C94.9057 78.5109 94.5657 78.8517 94.1502 78.8517Z" fill="#0A2B49"/>
<path d="M86.2165 78.8519C85.8009 78.8519 85.4609 78.511 85.4609 78.0947V72.4165C85.4609 72.0001 85.8009 71.6594 86.2165 71.6594C86.6323 71.6594 86.9723 72.0001 86.9723 72.4165V78.0947C86.9723 78.511 86.6323 78.8519 86.2165 78.8519Z" fill="#0A2B49"/>
<path d="M24.406 39.747C24.3681 39.747 24.3303 39.747 24.2925 39.747C23.877 39.6711 23.5747 39.2927 23.6503 38.8762L27.4283 12.3778C27.5039 11.9614 27.8819 11.6586 28.2974 11.7343C28.713 11.81 29.0152 12.1886 28.9397 12.605L25.1616 39.1033C25.0861 39.482 24.7838 39.747 24.406 39.747Z" fill="#0A2B49"/>
<path d="M31.9632 39.747C31.5854 39.747 31.2832 39.482 31.2076 39.1033L27.4296 12.605C27.354 12.1886 27.6563 11.81 28.0718 11.7343C28.4874 11.6586 28.8652 11.9614 28.9407 12.3778L32.719 38.8762C32.7945 39.2927 32.4923 39.6711 32.0765 39.747C32.0388 39.747 32.001 39.747 31.9632 39.747Z" fill="#0A2B49"/>
<path d="M109.338 64.8074H88.2187C88.1053 64.8074 87.992 64.7696 87.8786 64.7316C84.5162 62.9525 82.4761 60.492 82.0226 57.615C81.5315 54.5865 82.8539 51.1417 85.6119 48.189C86.8208 46.9399 88.2187 45.7285 89.73 44.4414C93.8103 40.9966 98.0418 37.4005 98.0418 32.2901C98.0418 31.8736 98.3819 31.533 98.7974 31.533C99.213 31.533 99.553 31.8736 99.553 32.2901C99.553 37.4005 103.785 40.9966 107.865 44.4414C109.376 45.7285 110.774 46.9021 111.983 48.189C114.779 51.1417 116.101 54.5865 115.572 57.615C115.119 60.454 113.079 62.9147 109.716 64.7316C109.565 64.7696 109.452 64.8074 109.338 64.8074ZM88.4075 63.2932H109.149C112.021 61.7033 113.683 59.7349 114.061 57.3879C114.476 54.8137 113.305 51.861 110.85 49.249C109.716 48.0377 108.318 46.8641 106.845 45.615C103.709 42.9652 100.233 40.0125 98.7596 36.2269C97.2483 40.0125 93.8103 42.9652 90.6745 45.615C89.2011 46.8641 87.8031 48.0377 86.6697 49.249C84.2139 51.861 83.0428 54.8137 83.4584 57.3879C83.8739 59.7349 85.5364 61.7033 88.4075 63.2932Z" fill="#0A2B49"/>
<path d="M89.9567 68.215C89.5412 68.215 89.2012 67.8744 89.2012 67.4581V64.0511C89.2012 63.6346 89.5412 63.2939 89.9567 63.2939C90.3723 63.2939 90.7125 63.6346 90.7125 64.0511V67.4581C90.7125 67.8744 90.3723 68.215 89.9567 68.215Z" fill="#0A2B49"/>
<path d="M111.114 82.4485C110.699 82.4485 110.359 82.1079 110.359 81.6914V73.8177H107.525C107.336 73.8177 107.147 73.7419 106.996 73.5905C106.845 73.439 106.77 73.2497 106.77 73.0606L106.807 64.0511C106.807 63.6346 107.147 63.2939 107.563 63.2939C107.979 63.2939 108.319 63.6346 108.319 64.0511L108.281 72.3034H111.114C111.53 72.3034 111.87 72.6441 111.87 73.0606V81.6914C111.87 82.1079 111.53 82.4485 111.114 82.4485Z" fill="#0A2B49"/>
<path d="M98.7597 33.0469C98.3441 33.0469 98.0039 32.7062 98.0039 32.2898V26.1194C98.0039 25.7031 98.3441 25.3623 98.7597 25.3623C99.1752 25.3623 99.5152 25.7031 99.5152 26.1194V32.2898C99.5152 32.7062 99.1752 33.0469 98.7597 33.0469Z" fill="#0A2B49"/>
<path d="M101.253 29.3375H96.3413C95.9258 29.3375 95.5858 28.9967 95.5858 28.5804C95.5858 28.1639 95.9258 27.8232 96.3413 27.8232H101.253C101.668 27.8232 102.009 28.1639 102.009 28.5804C102.009 28.9967 101.668 29.3375 101.253 29.3375Z" fill="#0A2B49"/>
<path d="M128.719 43.7605C128.379 43.7605 128.077 43.5334 128.001 43.1927L122.712 22.0317C122.599 21.6154 122.863 21.1989 123.279 21.1233C123.694 21.0098 124.11 21.2748 124.185 21.6911L129.475 42.8521C129.588 43.2684 129.324 43.6849 128.908 43.7605C128.832 43.7605 128.757 43.7605 128.719 43.7605Z" fill="#0A2B49"/>
<path d="M114.627 43.7598C114.552 43.7598 114.514 43.7598 114.439 43.722C114.023 43.6083 113.796 43.192 113.872 42.8133L119.161 21.6525C119.275 21.2362 119.69 21.0091 120.068 21.0847C120.483 21.1982 120.71 21.6147 120.635 21.9932L115.345 43.1542C115.27 43.5326 114.967 43.7598 114.627 43.7598Z" fill="#0A2B49"/>
<path d="M130.457 86.7638C130.041 86.7638 129.701 86.4232 129.701 86.0067V78.2843C129.701 77.868 130.041 77.5273 130.457 77.5273C130.872 77.5273 131.212 77.868 131.212 78.2843V86.0067C131.212 86.4232 130.872 86.7638 130.457 86.7638Z" fill="#0A2B49"/>
<path d="M151.615 86.7638C151.199 86.7638 150.859 86.4232 150.859 86.0067V78.2843C150.859 77.868 151.199 77.5273 151.615 77.5273C152.031 77.5273 152.371 77.868 152.371 78.2843V86.0067C152.371 86.4232 152.031 86.7638 151.615 86.7638Z" fill="#0A2B49"/>
<path d="M130.457 54.3596C130.042 54.3596 129.701 54.0189 129.701 53.6025V43.7602H112.851C112.436 43.7602 112.096 43.4195 112.096 43.003C112.096 42.5867 112.436 42.2461 112.851 42.2461H130.457C130.873 42.2461 131.213 42.5867 131.213 43.003V53.6025C131.213 54.0189 130.873 54.3596 130.457 54.3596Z" fill="#0A2B49"/>
<path d="M123.431 22.5992H119.917C119.804 22.5992 119.653 22.5612 119.539 22.5234C118.292 21.8421 114.439 19.7222 116.139 15.8988C116.592 14.9146 117.386 13.779 118.255 12.6055C119.501 10.902 120.899 8.97139 120.899 7.76002C120.899 7.34363 121.239 7.00293 121.655 7.00293C122.071 7.00293 122.411 7.34363 122.411 7.76002C122.411 8.97139 123.809 10.902 125.055 12.6055C125.924 13.8168 126.755 14.9146 127.171 15.8988C128.871 19.6844 125.017 21.8043 123.771 22.5234C123.695 22.5612 123.544 22.5992 123.431 22.5992ZM120.106 21.085H123.242C125.887 19.6086 126.604 18.2836 125.849 16.5045C125.471 15.6717 124.715 14.6118 123.884 13.4761C123.091 12.3783 122.259 11.2427 121.693 10.1827C121.126 11.2427 120.295 12.3783 119.501 13.4761C118.67 14.6118 117.915 15.6717 117.537 16.5045C116.706 18.2458 117.461 19.6086 120.106 21.085Z" fill="#0A2B49"/>
<path d="M121.654 8.32807C121.238 8.32807 120.898 7.98739 120.898 7.57098V0.757098C120.898 0.340694 121.238 0 121.654 0C122.07 0 122.41 0.340694 122.41 0.757098V7.57098C122.41 7.98739 122.07 8.32807 121.654 8.32807Z" fill="#0A2B49"/>
<path d="M124.224 4.08842H119.086C118.67 4.08842 118.33 3.74772 118.33 3.33131C118.33 2.91492 118.67 2.57422 119.086 2.57422H124.224C124.639 2.57422 124.979 2.91492 124.979 3.33131C124.979 3.74772 124.677 4.08842 124.224 4.08842Z" fill="#0A2B49"/>
<path d="M151.616 79.0408H130.496C130.383 79.0408 130.269 79.003 130.156 78.9652C126.794 77.186 124.753 74.7254 124.3 71.8484C123.809 68.8201 125.131 65.3753 127.889 62.4226C129.098 61.1733 130.496 59.9621 132.007 58.675C136.088 55.2302 140.319 51.6339 140.319 46.5235C140.319 46.1072 140.659 45.7664 141.075 45.7664C141.49 45.7664 141.83 46.1072 141.83 46.5235C141.83 51.6339 146.062 55.2302 150.142 58.675C151.653 59.9621 153.051 61.1355 154.26 62.4226C157.056 65.3753 158.378 68.8201 157.849 71.8484C157.396 74.6876 155.356 77.1481 151.993 78.9652C151.842 79.003 151.729 79.0408 151.616 79.0408ZM130.647 77.5268H151.389C154.26 75.9369 155.923 73.9683 156.3 71.6213C156.716 69.0472 155.545 66.0946 153.089 63.4825C151.956 62.2711 150.558 61.0977 149.084 59.8484C145.948 57.1986 142.473 54.2459 140.999 50.4604C139.488 54.2459 136.05 57.1986 132.914 59.8484C131.441 61.0977 130.043 62.2711 128.909 63.4825C126.454 66.0946 125.282 69.0472 125.698 71.6213C126.113 73.9683 127.776 75.9747 130.647 77.5268Z" fill="#0A2B49"/>
<path d="M141.037 47.2804C140.621 47.2804 140.281 46.9398 140.281 46.5233V39.7474C140.281 39.3309 140.621 38.9902 141.037 38.9902C141.453 38.9902 141.793 39.3309 141.793 39.7474V46.5233C141.793 46.9398 141.453 47.2804 141.037 47.2804Z" fill="#0A2B49"/>
<path d="M143.756 43.2299H138.353C137.938 43.2299 137.598 42.8893 137.598 42.4729C137.598 42.0565 137.938 41.7158 138.353 41.7158H143.756C144.172 41.7158 144.512 42.0565 144.512 42.4729C144.512 42.8893 144.172 43.2299 143.756 43.2299Z" fill="#0A2B49"/>
<path d="M149.84 79.0404C149.688 79.0404 149.575 79.0026 149.462 78.9269C146.213 76.9962 144.664 74.8006 144.815 72.4158C145.193 67.2297 153.92 63.4443 154.298 63.2928C154.675 63.1413 155.129 63.2928 155.28 63.7093C155.431 64.0877 155.28 64.542 154.864 64.6934C151.993 65.9048 146.553 69.1224 146.326 72.5294C146.213 74.2707 147.535 76.0121 150.217 77.6398C150.557 77.867 150.708 78.3211 150.482 78.6619C150.331 78.9269 150.104 79.0404 149.84 79.0404Z" fill="#0A2B49"/>
<path d="M139.261 79.0408C139.11 79.0408 138.996 79.0029 138.845 78.9271C135.369 76.6937 133.594 74.1954 133.631 71.5455C133.669 66.3593 140.583 61.3248 147.384 57.085C147.724 56.8578 148.215 56.9713 148.442 57.3122C148.668 57.6528 148.555 58.1449 148.215 58.3721C136.692 65.5644 135.18 69.1607 135.18 71.5455C135.18 73.6654 136.654 75.6716 139.714 77.6402C140.054 77.8673 140.168 78.3215 139.941 78.7001C139.752 78.9271 139.525 79.0408 139.261 79.0408Z" fill="#0A2B49"/>
<path d="M107.599 64.8077C107.448 64.8077 107.335 64.7698 107.221 64.6942C103.972 62.7636 102.423 60.5679 102.575 58.183C102.952 52.997 111.68 49.2115 112.058 49.06C112.435 48.9087 112.889 49.06 113.04 49.4765C113.191 49.855 113.04 50.3093 112.624 50.4606C109.753 51.6721 104.312 54.8897 104.086 58.2967C103.972 60.0379 105.295 61.7793 107.977 63.4071C108.317 63.6342 108.468 64.0885 108.242 64.4292C108.09 64.6563 107.826 64.8077 107.599 64.8077Z" fill="#0A2B49"/>
<path d="M97.0206 64.8076C96.8695 64.8076 96.7562 64.7697 96.605 64.6941C93.1292 62.4607 91.3534 59.9622 91.3912 57.3123C91.429 52.1263 98.3429 47.0916 105.143 42.8518C105.483 42.6246 105.975 42.7383 106.201 43.079C106.428 43.4196 106.315 43.9117 105.975 44.1389C94.4515 51.3313 92.9401 54.9275 92.9401 57.3123C92.9401 59.4322 94.4137 61.4386 97.4739 63.407C97.814 63.6341 97.9273 64.0885 97.7006 64.4669C97.5117 64.6941 97.2851 64.8076 97.0206 64.8076Z" fill="#0A2B49"/>
<path d="M118.858 43.5329C118.821 43.5329 118.821 43.5329 118.783 43.5329C118.367 43.4951 118.065 43.1164 118.103 42.7001L120.37 21.88C120.407 21.4635 120.785 21.1607 121.201 21.1985C121.616 21.2363 121.919 21.615 121.881 22.0313L119.614 42.8515C119.576 43.2301 119.236 43.5329 118.858 43.5329Z" fill="#0A2B49"/>
<path d="M124.148 43.5329C123.77 43.5329 123.43 43.2301 123.392 42.8515L121.503 22.0313C121.465 21.615 121.768 21.2363 122.183 21.1985C122.599 21.1607 122.977 21.4635 123.015 21.88L124.903 42.7001C124.941 43.1164 124.639 43.4951 124.223 43.5329C124.186 43.5329 124.186 43.5329 124.148 43.5329Z" fill="#0A2B49"/>
</svg>
