<svg width="140" height="115" viewBox="0 0 140 115" fill="none" xmlns="http://www.w3.org/2000/svg">
<g clip-path="url(#clip0_4063_3391)">
<path d="M30.448 85.3187C30.448 87.4243 29.0611 88.56 28.0807 88.9386L30.711 94.1437H27.7937L25.5221 89.3408H23.2026V94.1437H20.668V81.2493H25.8808C28.9654 81.2256 30.448 83.0237 30.448 85.3187ZM25.4504 87.4007C26.909 87.4007 27.7698 86.6909 27.7698 85.366C27.7698 83.9465 26.8134 83.2366 25.4982 83.2366H23.2026V87.4007H25.4504Z" fill="#0A2B49"/>
<path d="M35.1132 89.4117C35.1132 91.1861 36.1893 92.1798 37.8154 92.1798C39.4174 92.1798 40.4935 91.1624 40.4935 89.4117V81.2256H43.0759V89.7666C43.0759 92.4874 41.0912 94.3565 37.8154 94.3565C34.5394 94.3565 32.5547 92.4874 32.5547 89.7666V81.2256H35.1371V89.4117H35.1132Z" fill="#0A2B49"/>
<path d="M47.357 90.4521C47.4526 91.4458 48.3613 92.3449 50.0591 92.3449C51.6372 92.3449 52.522 91.6352 52.522 90.5705C52.522 89.6714 51.8524 89.1982 50.5134 88.8907L48.5048 88.4175C46.7114 88.0153 45.2049 87.0216 45.2049 84.8686C45.2049 82.3607 47.3809 80.9648 50.0591 80.9648C52.8567 80.9648 54.8653 82.479 54.8893 84.7977H52.4742C52.3785 83.8276 51.6133 82.9759 50.0591 82.9759C48.6722 82.9759 47.7874 83.6383 47.7874 84.6793C47.7874 85.4601 48.4091 85.9806 49.5808 86.2408L51.6133 86.714C53.5501 87.1399 55.1284 88.0389 55.1284 90.3576C55.1284 92.8891 53.0958 94.4033 49.9634 94.4033C46.1853 94.4033 44.9419 92.2977 44.918 90.4995H47.357V90.4521Z" fill="#0A2B49"/>
<path d="M58.3771 91.3984C59.1901 91.3984 59.8596 92.0609 59.8596 92.8653C59.8596 93.6698 59.1901 94.3322 58.3771 94.3322C57.564 94.3322 56.8945 93.6698 56.8945 92.8653C56.8945 92.0609 57.564 91.3984 58.3771 91.3984Z" fill="#0A2B49"/>
<path d="M63.9746 90.4521C64.0703 91.4458 64.979 92.3449 66.6767 92.3449C68.255 92.3449 69.1396 91.6352 69.1396 90.5705C69.1396 89.6714 68.4702 89.1982 67.131 88.8907L65.1224 88.4175C63.329 88.0153 61.8226 87.0216 61.8226 84.8686C61.8226 82.3607 63.9985 80.9648 66.6767 80.9648C69.4744 80.9648 71.483 82.479 71.5069 84.7977H69.0918C68.9962 83.8276 68.231 82.9759 66.6767 82.9759C65.2898 82.9759 64.4051 83.6383 64.4051 84.6793C64.4051 85.4601 65.0268 85.9806 66.1984 86.2408L68.231 86.714C70.1679 87.1399 71.7221 88.0389 71.7221 90.3576C71.7221 92.8891 69.6896 94.4033 66.5572 94.4033C62.7791 94.4033 61.5356 92.2977 61.5117 90.4995H63.9746V90.4521Z" fill="#0A2B49"/>
<path d="M76.265 94.1199V83.3548H72.5586V81.2256H82.5538V83.3548H78.8474V94.1199H76.265Z" fill="#0A2B49"/>
<path d="M86.7382 89.4117C86.7382 91.1861 87.8143 92.1798 89.4403 92.1798C91.0424 92.1798 92.1185 91.1624 92.1185 89.4117V81.2256H94.7009V89.7666C94.7009 92.4874 92.7162 94.3565 89.4403 94.3565C86.1644 94.3565 84.1797 92.4874 84.1797 89.7666V81.2256H86.7621V89.4117H86.7382Z" fill="#0A2B49"/>
<path d="M102.044 81.2256C106.013 81.2256 107.878 83.5678 107.878 87.6372C107.878 91.7303 105.989 94.1199 102.044 94.1199H97.2852V81.2256H102.044ZM99.8676 92.0378H101.709C103.885 92.0378 105.224 90.9495 105.224 87.6845C105.224 85.011 104.291 83.3076 101.709 83.3076H99.8676V92.0378Z" fill="#0A2B49"/>
<path d="M112.348 94.1199V89.2224L107.996 81.2256H110.842L113.615 86.6908H113.711L116.509 81.2256H119.306L114.931 89.175V94.1199H112.348Z" fill="#0A2B49"/>
<path d="M40.397 28.6592C40.3492 28.6592 40.2774 28.6592 40.2296 28.6355L37.7666 27.6892L35.3037 28.6355C35.1363 28.7065 34.9689 28.6592 34.8255 28.5646C34.682 28.4699 34.6342 28.2806 34.6581 28.115L34.9929 25.7728L33.1277 23.809C33.0082 23.6671 32.9603 23.5015 33.0321 23.3359C33.1038 23.1702 33.2473 23.0519 33.4146 23.0283L36.0449 22.7207L37.3123 20.3784C37.384 20.2365 37.5514 20.1418 37.7427 20.1418C37.9101 20.1418 38.0774 20.2365 38.1731 20.3784L39.4405 22.7207L42.0707 23.0283C42.2382 23.0519 42.4056 23.1702 42.4534 23.3359C42.5251 23.5015 42.4773 23.6907 42.3578 23.809L40.4926 25.7728L40.8274 28.115C40.8513 28.2806 40.7796 28.4463 40.66 28.5646C40.6122 28.6119 40.4926 28.6592 40.397 28.6592ZM37.7427 26.6718C37.7905 26.6718 37.8622 26.6718 37.9101 26.6955L39.7752 27.4289L39.5361 25.6781C39.5122 25.5362 39.56 25.3942 39.6556 25.2759L41.0187 23.809L39.0818 23.5724C38.9383 23.5488 38.7949 23.4542 38.7231 23.3359L37.7427 21.5377L36.7623 23.3359C36.6906 23.4778 36.5472 23.5724 36.4037 23.5724L34.4668 23.809L35.8297 25.2759C35.9254 25.3706 35.9732 25.5362 35.9493 25.6781L35.6863 27.4289L37.5514 26.6955C37.647 26.6955 37.6949 26.6718 37.7427 26.6718Z" fill="#0A2B49"/>
<path d="M43.6489 45.3627C43.4576 45.3627 43.2664 45.2444 43.1946 45.0315L37.7427 29.2271L32.3146 45.0552C32.219 45.2918 31.956 45.4338 31.7169 45.3391C31.4778 45.2444 31.3343 44.9842 31.4299 44.7476L37.3123 27.6183C37.384 27.429 37.5514 27.287 37.7666 27.287C37.9818 27.287 38.1492 27.4053 38.2209 27.6183L44.1032 44.7476C44.1989 44.9842 44.0554 45.2682 43.8163 45.3391C43.7446 45.3627 43.6968 45.3627 43.6489 45.3627Z" fill="#0A2B49"/>
<path d="M44.9163 60.0787C44.6533 60.0787 44.4381 59.8658 44.4381 59.6056V45.0314L42.7403 45.8595C42.5969 45.9305 42.4534 45.9305 42.3099 45.8595L40.134 44.7949L37.958 45.8595C37.8144 45.9305 37.671 45.9305 37.5275 45.8595L35.3515 44.7949L33.1755 45.8595C33.0321 45.9305 32.8886 45.9305 32.7451 45.8595L31.0474 45.0314V59.6056C31.0474 59.8658 30.8322 60.0787 30.5691 60.0787C30.3061 60.0787 30.0909 59.8658 30.0909 59.6056V44.2744C30.0909 44.1088 30.1865 43.9668 30.3061 43.8721C30.4496 43.7776 30.617 43.7776 30.7604 43.8485L32.9364 44.9131L35.1124 43.8485C35.2559 43.7776 35.3993 43.7776 35.5428 43.8485L37.7188 44.9131L39.8949 43.8485C40.0383 43.7776 40.1818 43.7776 40.3253 43.8485L42.5012 44.9131L44.6772 43.8485C44.8207 43.7776 45.012 43.7776 45.1315 43.8721C45.275 43.9668 45.3467 44.1088 45.3467 44.2744V59.6056C45.3945 59.8658 45.1793 60.0787 44.9163 60.0787Z" fill="#0A2B49"/>
<path d="M49.6749 74.2269C49.4118 74.2269 49.1966 74.014 49.1966 73.7538V60.3625L47.4989 61.1906C47.3554 61.2616 47.212 61.2616 47.0684 61.1906L44.8924 60.126L42.7164 61.1906C42.573 61.2616 42.4295 61.2616 42.286 61.1906L40.1101 60.126L37.9341 61.1906C37.7906 61.2616 37.6471 61.2616 37.5036 61.1906L35.3276 60.126L33.1516 61.1906C33.0082 61.2616 32.8647 61.2616 32.7212 61.1906L30.5452 60.126L28.3692 61.1906C28.2258 61.2616 28.0823 61.2616 27.9388 61.1906L26.2411 60.3625V73.7538C26.2411 74.014 26.0259 74.2269 25.7628 74.2269C25.4998 74.2269 25.2846 74.014 25.2846 73.7538V59.6055C25.2846 59.4399 25.3802 59.2979 25.4998 59.2032C25.6433 59.1086 25.8107 59.1086 25.9541 59.1796L28.1301 60.2443L30.3061 59.1796C30.4496 59.1086 30.5931 59.1086 30.7365 59.1796L32.9125 60.2443L35.0885 59.1796C35.232 59.1086 35.3754 59.1086 35.5189 59.1796L37.695 60.2443L39.8709 59.1796C40.0144 59.1086 40.1579 59.1086 40.3013 59.1796L42.4773 60.2443L44.6533 59.1796C44.7968 59.1086 44.9402 59.1086 45.0837 59.1796L47.2598 60.2443L49.4358 59.1796C49.5792 59.1086 49.7705 59.1086 49.8901 59.2032C50.0335 59.2979 50.1052 59.4399 50.1052 59.6055V73.7538C50.1531 74.014 49.9379 74.2269 49.6749 74.2269Z" fill="#0A2B49"/>
<path d="M37.7427 56.5299C35.495 56.5299 33.6777 54.7318 33.6777 52.5078C33.6777 50.2838 35.495 48.4857 37.7427 48.4857C39.9904 48.4857 41.8077 50.2838 41.8077 52.5078C41.8077 54.7318 39.9904 56.5299 37.7427 56.5299ZM37.7427 49.4558C36.0449 49.4558 34.6342 50.828 34.6342 52.5315C34.6342 54.2113 36.021 55.6072 37.7427 55.6072C39.4405 55.6072 40.8513 54.235 40.8513 52.5315C40.8513 50.828 39.4644 49.4558 37.7427 49.4558Z" fill="#0A2B49"/>
<path d="M20.4782 74.227C20.2152 74.227 20 74.0141 20 73.7538V69.0456C20 68.7853 20.2152 68.5724 20.4782 68.5724H25.8345C26.0976 68.5724 26.3128 68.7853 26.3128 69.0456C26.3128 69.3058 26.0976 69.5188 25.8345 69.5188H20.9565V73.7538C20.9565 74.0141 20.7413 74.227 20.4782 74.227Z" fill="#0A2B49"/>
<path d="M20.4782 69.2585C20.2152 69.2585 20 69.0456 20 68.7853V65.2364C20 64.9763 20.2152 64.7632 20.4782 64.7632C20.7413 64.7632 20.9565 64.9763 20.9565 65.2364V68.7853C20.9565 69.0456 20.7413 69.2585 20.4782 69.2585Z" fill="#0A2B49"/>
<path d="M64.5002 69.2585C64.2372 69.2585 64.022 69.0456 64.022 68.7853V65.2364C64.022 64.9763 64.2372 64.7632 64.5002 64.7632C64.7632 64.7632 64.9784 64.9763 64.9784 65.2364V68.7853C64.9784 69.0456 64.7632 69.2585 64.5002 69.2585Z" fill="#0A2B49"/>
<path d="M69.5217 69.2585C69.2587 69.2585 69.0435 69.0456 69.0435 68.7853V65.2364C69.0435 64.9763 69.2587 64.7632 69.5217 64.7632C69.7847 64.7632 70 64.9763 70 65.2364V68.7853C70 69.0456 69.8086 69.2585 69.5217 69.2585Z" fill="#0A2B49"/>
<path d="M84.7058 74.227C84.4427 74.227 84.2275 74.0141 84.2275 73.7538V69.5188H49.6746C49.4116 69.5188 49.1964 69.3058 49.1964 69.0456C49.1964 68.7853 49.4116 68.5724 49.6746 68.5724H84.7058C84.9688 68.5724 85.184 68.7853 85.184 69.0456V73.7538C85.184 74.0141 84.9688 74.227 84.7058 74.227Z" fill="#0A2B49"/>
<path d="M84.7057 69.2585C84.4427 69.2585 84.2275 69.0456 84.2275 68.7853V65.2364C84.2275 64.9763 84.4427 64.7632 84.7057 64.7632C84.9688 64.7632 85.184 64.9763 85.184 65.2364V68.7853C85.184 69.0456 84.9688 69.2585 84.7057 69.2585Z" fill="#0A2B49"/>
<path d="M59.4785 69.2585C59.2155 69.2585 59.0003 69.0456 59.0003 68.7853V65.2364C59.0003 64.9763 59.2155 64.7632 59.4785 64.7632C59.7417 64.7632 59.9569 64.9763 59.9569 65.2364V68.7853C59.9569 69.0456 59.7417 69.2585 59.4785 69.2585Z" fill="#0A2B49"/>
<path d="M54.4332 69.2585C54.1702 69.2585 53.955 69.0456 53.955 68.7853V65.2364C53.955 64.9763 54.1702 64.7632 54.4332 64.7632C54.6962 64.7632 54.9114 64.9763 54.9114 65.2364V68.7853C54.9114 69.0456 54.7201 69.2585 54.4332 69.2585Z" fill="#0A2B49"/>
<path d="M30.593 70.7018C30.33 70.7018 30.1148 70.4889 30.1148 70.2287V66.6797C30.1148 66.4195 30.33 66.2065 30.593 66.2065C30.856 66.2065 31.0712 66.4195 31.0712 66.6797V70.2287C31.0712 70.4889 30.856 70.7018 30.593 70.7018Z" fill="#0A2B49"/>
<path d="M35.3754 70.7018C35.1124 70.7018 34.8972 70.4889 34.8972 70.2287V66.6797C34.8972 66.4195 35.1124 66.2065 35.3754 66.2065C35.6384 66.2065 35.8536 66.4195 35.8536 66.6797V70.2287C35.8536 70.4889 35.6384 70.7018 35.3754 70.7018Z" fill="#0A2B49"/>
<path d="M40.1339 70.7018C39.8708 70.7018 39.6555 70.4889 39.6555 70.2287V66.6797C39.6555 66.4195 39.8708 66.2065 40.1339 66.2065C40.3969 66.2065 40.6121 66.4195 40.6121 66.6797V70.2287C40.6121 70.4889 40.3969 70.7018 40.1339 70.7018Z" fill="#0A2B49"/>
<path d="M44.9163 70.7018C44.6532 70.7018 44.438 70.4889 44.438 70.2287V66.6797C44.438 66.4195 44.6532 66.2065 44.9163 66.2065C45.1793 66.2065 45.3945 66.4195 45.3945 66.6797V70.2287C45.3945 70.4889 45.1793 70.7018 44.9163 70.7018Z" fill="#0A2B49"/>
<path d="M79.5887 69.2824C79.3257 69.2824 79.1105 69.0694 79.1105 68.8092V65.2603C79.1105 65 79.3257 64.7871 79.5887 64.7871C79.8517 64.7871 80.0669 65 80.0669 65.2603V68.8092C80.0669 69.0694 79.8517 69.2824 79.5887 69.2824Z" fill="#0A2B49"/>
<path d="M74.567 69.2824C74.304 69.2824 74.0888 69.0694 74.0888 68.8092V65.2603C74.0888 65 74.304 64.7871 74.567 64.7871C74.8302 64.7871 75.0454 65 75.0454 65.2603V68.8092C75.0454 69.0694 74.8302 69.2824 74.567 69.2824Z" fill="#0A2B49"/>
<path d="M35.4473 44.8422C35.4232 44.8422 35.3993 44.8422 35.3754 44.8422C35.1124 44.7948 34.9211 44.5582 34.9689 44.2979L37.3601 27.7364C37.4079 27.4762 37.6472 27.2869 37.9102 27.3342C38.1732 27.3816 38.3645 27.6182 38.3167 27.8784L35.9255 44.4399C35.8777 44.6765 35.6864 44.8422 35.4473 44.8422Z" fill="#0A2B49"/>
<path d="M40.2295 44.8422C39.9904 44.8422 39.7991 44.6765 39.7513 44.4399L37.3601 27.8784C37.3123 27.6182 37.5036 27.3816 37.7666 27.3342C38.0296 27.2869 38.2687 27.4762 38.3165 27.7364L40.7078 44.2979C40.7556 44.5582 40.5644 44.7948 40.3012 44.8422C40.2773 44.8422 40.2534 44.8422 40.2295 44.8422Z" fill="#0A2B49"/>
<path d="M89.2011 60.5047H75.8343C75.7626 60.5047 75.6908 60.4811 75.6191 60.4573C73.491 59.3454 72.1998 57.8076 71.9127 56.0095C71.6019 54.1167 72.4389 51.9637 74.1845 50.1182C74.9496 49.3376 75.8343 48.5804 76.7908 47.776C79.3733 45.623 82.0515 43.3754 82.0515 40.1814C82.0515 39.9211 82.2667 39.7082 82.5297 39.7082C82.7927 39.7082 83.0079 39.9211 83.0079 40.1814C83.0079 43.3754 85.6861 45.623 88.2686 47.776C89.225 48.5804 90.1098 49.3139 90.875 50.1182C92.6445 51.9637 93.4815 54.1167 93.1467 56.0095C92.8597 57.7839 91.5685 59.3218 89.4403 60.4573C89.3447 60.4811 89.2728 60.5047 89.2011 60.5047ZM75.9539 59.5583H89.0816C90.8989 58.5646 91.9511 57.3344 92.1902 55.8675C92.4532 54.2586 91.712 52.4132 90.1577 50.7807C89.4403 50.0237 88.5555 49.2902 87.623 48.5095C85.6383 46.8533 83.4383 45.0079 82.5058 42.6419C81.5493 45.0079 79.3733 46.8533 77.3886 48.5095C76.4561 49.2902 75.5713 50.0237 74.854 50.7807C73.2997 52.4132 72.5584 54.2586 72.8215 55.8675C73.0845 57.3344 74.1366 58.5646 75.9539 59.5583Z" fill="#0A2B49"/>
<path d="M76.9343 62.6341C76.6713 62.6341 76.4561 62.4212 76.4561 62.161V60.0316C76.4561 59.7713 76.6713 59.5584 76.9343 59.5584C77.1973 59.5584 77.4126 59.7713 77.4126 60.0316V62.161C77.4126 62.4212 77.1973 62.6341 76.9343 62.6341Z" fill="#0A2B49"/>
<path d="M90.3251 71.5301C90.0621 71.5301 89.8469 71.3172 89.8469 71.0569V66.1358H88.0534C87.9339 66.1358 87.8143 66.0884 87.7187 65.9938C87.623 65.8991 87.5752 65.7808 87.5752 65.6626L87.5991 60.0316C87.5991 59.7713 87.8143 59.5584 88.0773 59.5584C88.3404 59.5584 88.5556 59.7713 88.5556 60.0316L88.5317 65.1894H90.3251C90.5882 65.1894 90.8034 65.4023 90.8034 65.6626V71.0569C90.8034 71.3172 90.5882 71.5301 90.3251 71.5301Z" fill="#0A2B49"/>
<path d="M82.5058 40.6546C82.2428 40.6546 82.0275 40.4417 82.0275 40.1814V36.3249C82.0275 36.0648 82.2428 35.8517 82.5058 35.8517C82.7688 35.8517 82.984 36.0648 82.984 36.3249V40.1814C82.984 40.4417 82.7688 40.6546 82.5058 40.6546Z" fill="#0A2B49"/>
<path d="M84.0841 38.3359H80.9755C80.7125 38.3359 80.4973 38.1229 80.4973 37.8627C80.4973 37.6024 80.7125 37.3895 80.9755 37.3895H84.0841C84.3471 37.3895 84.5623 37.6024 84.5623 37.8627C84.5623 38.1229 84.3471 38.3359 84.0841 38.3359Z" fill="#0A2B49"/>
<path d="M101.468 47.3502C101.253 47.3502 101.061 47.2083 101.014 46.9954L97.6659 33.7697C97.5942 33.5095 97.7616 33.2492 98.0246 33.202C98.2877 33.131 98.5507 33.2966 98.5985 33.5568L101.946 46.7825C102.018 47.0426 101.851 47.3029 101.587 47.3502C101.54 47.3502 101.492 47.3502 101.468 47.3502Z" fill="#0A2B49"/>
<path d="M92.5488 47.3501C92.501 47.3501 92.4771 47.3501 92.4293 47.3264C92.1663 47.2554 92.0228 46.9952 92.0706 46.7585L95.4183 33.533C95.4901 33.2728 95.7531 33.1308 95.9922 33.1781C96.2552 33.2491 96.3987 33.5094 96.3508 33.7459L93.0031 46.9715C92.9553 47.2081 92.764 47.3501 92.5488 47.3501Z" fill="#0A2B49"/>
<path d="M102.568 74.2272C102.305 74.2272 102.09 74.0143 102.09 73.754V68.9275C102.09 68.6673 102.305 68.4544 102.568 68.4544C102.831 68.4544 103.046 68.6673 103.046 68.9275V73.754C103.046 74.0143 102.831 74.2272 102.568 74.2272Z" fill="#0A2B49"/>
<path d="M115.959 74.2272C115.696 74.2272 115.48 74.0143 115.48 73.754V68.9275C115.48 68.6673 115.696 68.4544 115.959 68.4544C116.222 68.4544 116.437 68.6673 116.437 68.9275V73.754C116.437 74.0143 116.222 74.2272 115.959 74.2272Z" fill="#0A2B49"/>
<path d="M102.568 53.9748C102.305 53.9748 102.09 53.7619 102.09 53.5016V47.3501H91.425C91.162 47.3501 90.9468 47.1372 90.9468 46.8769C90.9468 46.6167 91.162 46.4038 91.425 46.4038H102.568C102.831 46.4038 103.046 46.6167 103.046 46.8769V53.5016C103.046 53.7619 102.831 53.9748 102.568 53.9748Z" fill="#0A2B49"/>
<path d="M98.1203 34.1248H95.8964C95.8247 34.1248 95.7291 34.101 95.6573 34.0774C94.8683 33.6516 92.4293 32.3266 93.5053 29.937C93.7922 29.3219 94.2944 28.6121 94.8444 27.8787C95.6334 26.814 96.5182 25.6074 96.5182 24.8503C96.5182 24.59 96.7334 24.3771 96.9964 24.3771C97.2594 24.3771 97.4746 24.59 97.4746 24.8503C97.4746 25.6074 98.3595 26.814 99.1485 27.8787C99.6986 28.6358 100.225 29.3219 100.488 29.937C101.564 32.303 99.1246 33.6279 98.3355 34.0774C98.2877 34.101 98.1921 34.1248 98.1203 34.1248ZM96.0161 33.1784H98.0008C99.6746 32.2556 100.129 31.4275 99.6507 30.3156C99.4115 29.7951 98.9333 29.1326 98.4073 28.4228C97.9051 27.7367 97.379 27.0269 97.0203 26.3645C96.6617 27.0269 96.1357 27.7367 95.6334 28.4228C95.1074 29.1326 94.6292 29.7951 94.3901 30.3156C93.8639 31.4039 94.3422 32.2556 96.0161 33.1784Z" fill="#0A2B49"/>
<path d="M96.9964 25.205C96.7334 25.205 96.5182 24.9921 96.5182 24.7319V20.4732C96.5182 20.2129 96.7334 20 96.9964 20C97.2596 20 97.4748 20.2129 97.4748 20.4732V24.7319C97.4748 24.9921 97.2596 25.205 96.9964 25.205Z" fill="#0A2B49"/>
<path d="M98.6225 22.5553H95.3704C95.1074 22.5553 94.8922 22.3423 94.8922 22.0821C94.8922 21.8218 95.1074 21.6089 95.3704 21.6089H98.6225C98.8855 21.6089 99.1007 21.8218 99.1007 22.0821C99.1007 22.3423 98.9094 22.5553 98.6225 22.5553Z" fill="#0A2B49"/>
<path d="M115.959 69.4006H102.592C102.52 69.4006 102.448 69.3769 102.377 69.3533C100.249 68.2413 98.9574 66.7034 98.6704 64.9053C98.3595 63.0126 99.1965 60.8596 100.942 59.0142C101.707 58.2334 102.592 57.4764 103.548 56.6719C106.131 54.5189 108.809 52.2712 108.809 49.0772C108.809 48.817 109.024 48.604 109.287 48.604C109.55 48.604 109.766 48.817 109.766 49.0772C109.766 52.2712 112.444 54.5189 115.026 56.6719C115.983 57.4764 116.867 58.2098 117.633 59.0142C119.402 60.8596 120.239 63.0126 119.904 64.9053C119.617 66.6798 118.326 68.2176 116.198 69.3533C116.102 69.3769 116.03 69.4006 115.959 69.4006ZM102.688 68.4543H115.815C117.633 67.4606 118.685 66.2302 118.924 64.7633C119.187 63.1546 118.446 61.3092 116.891 59.6767C116.174 58.9195 115.289 58.1861 114.357 57.4053C112.372 55.7492 110.172 53.9037 109.24 51.5378C108.283 53.9037 106.107 55.7492 104.122 57.4053C103.19 58.1861 102.305 58.9195 101.588 59.6767C100.033 61.3092 99.2922 63.1546 99.5552 64.7633C99.8182 66.2302 100.87 67.4842 102.688 68.4543Z" fill="#0A2B49"/>
<path d="M109.263 49.5506C109 49.5506 108.785 49.3376 108.785 49.0773V44.8424C108.785 44.5821 109 44.3692 109.263 44.3692C109.526 44.3692 109.742 44.5821 109.742 44.8424V49.0773C109.742 49.3376 109.526 49.5506 109.263 49.5506Z" fill="#0A2B49"/>
<path d="M110.985 47.0189H107.565C107.302 47.0189 107.087 46.806 107.087 46.5458C107.087 46.2855 107.302 46.0726 107.565 46.0726H110.985C111.248 46.0726 111.463 46.2855 111.463 46.5458C111.463 46.806 111.248 47.0189 110.985 47.0189Z" fill="#0A2B49"/>
<path d="M114.835 69.4005C114.739 69.4005 114.667 69.3768 114.596 69.3296C112.539 68.1229 111.559 66.7506 111.655 65.2601C111.894 62.0188 117.417 59.6529 117.656 59.5582C117.895 59.4635 118.182 59.5582 118.278 59.8185C118.374 60.0551 118.278 60.339 118.015 60.4336C116.198 61.1907 112.754 63.2018 112.611 65.3311C112.539 66.4194 113.376 67.5078 115.074 68.5251C115.289 68.6671 115.385 68.9509 115.241 69.1639C115.146 69.3296 115.002 69.4005 114.835 69.4005Z" fill="#0A2B49"/>
<path d="M108.139 69.4007C108.044 69.4007 107.972 69.3771 107.876 69.3297C105.676 67.9338 104.553 66.3723 104.577 64.7162C104.6 61.4748 108.976 58.3282 113.281 55.6783C113.496 55.5364 113.807 55.6073 113.95 55.8203C114.094 56.0332 114.022 56.3408 113.807 56.4828C106.513 60.9779 105.557 63.2256 105.557 64.7162C105.557 66.0411 106.489 67.295 108.426 68.5253C108.642 68.6673 108.713 68.9511 108.57 69.1878C108.45 69.3297 108.307 69.4007 108.139 69.4007Z" fill="#0A2B49"/>
<path d="M88.1012 60.5048C88.0056 60.5048 87.9339 60.4812 87.8621 60.4339C85.8057 59.2273 84.8254 57.855 84.921 56.3644C85.1601 53.1232 90.6838 50.7573 90.9229 50.6626C91.162 50.568 91.4489 50.6626 91.5446 50.9229C91.6402 51.1594 91.5446 51.4434 91.2816 51.5379C89.4642 52.2951 86.0209 54.3061 85.8774 56.4355C85.8057 57.5238 86.6426 58.6121 88.3403 59.6295C88.5555 59.7715 88.6513 60.0554 88.5077 60.2683C88.4121 60.4103 88.2447 60.5048 88.1012 60.5048Z" fill="#0A2B49"/>
<path d="M81.4059 60.5047C81.3103 60.5047 81.2385 60.4811 81.1429 60.4338C78.943 59.0379 77.8191 57.4764 77.843 55.8202C77.8669 52.5789 82.2428 49.4322 86.5469 46.7824C86.7621 46.6404 87.073 46.7114 87.2164 46.9243C87.36 47.1373 87.2881 47.4448 87.073 47.5868C79.7799 52.0821 78.8233 54.3297 78.8233 55.8202C78.8233 57.1451 79.756 58.3991 81.6928 59.6294C81.908 59.7713 81.9798 60.0553 81.8363 60.2918C81.7168 60.4338 81.5733 60.5047 81.4059 60.5047Z" fill="#0A2B49"/>
<path d="M95.227 47.2083C95.2031 47.2083 95.2031 47.2083 95.1792 47.2083C94.9162 47.1846 94.7249 46.948 94.7488 46.6878L96.1836 33.6752C96.2075 33.4149 96.4466 33.2256 96.7096 33.2492C96.9726 33.2729 97.1639 33.5095 97.14 33.7697L95.7053 46.7823C95.6814 47.019 95.4662 47.2083 95.227 47.2083Z" fill="#0A2B49"/>
<path d="M98.5747 47.2083C98.3356 47.2083 98.1204 47.019 98.0965 46.7823L96.9009 33.7697C96.877 33.5095 97.0683 33.2729 97.3313 33.2492C97.5943 33.2256 97.8335 33.4149 97.8574 33.6752L99.0529 46.6878C99.0769 46.948 98.8856 47.1846 98.6226 47.2083C98.5986 47.2083 98.5986 47.2083 98.5747 47.2083Z" fill="#0A2B49"/>
</g>
<defs>
<clipPath id="clip0_4063_3391">
<rect width="100" height="75" fill="white" transform="translate(20 20)"/>
</clipPath>
</defs>
</svg>
