<svg width="76" height="18" viewBox="0 0 76 18" fill="none" xmlns="http://www.w3.org/2000/svg">
<path d="M4.45304 16.9229L4.77358 15.0516L4.05964 15.0364H0.650477L3.01969 1.22755C3.02692 1.18586 3.05091 1.14699 3.08584 1.11939C3.12077 1.09179 3.16558 1.07658 3.21215 1.07658H8.96054C10.869 1.07658 12.1859 1.44162 12.8735 2.1621C13.1958 2.50011 13.4012 2.8533 13.5005 3.242C13.6046 3.64986 13.6065 4.13713 13.5047 4.73144L13.4973 4.77482V5.15561L13.8198 5.3235C14.0913 5.45587 14.3069 5.6074 14.4723 5.78091C14.7483 6.06989 14.9266 6.43718 15.0019 6.87263C15.0797 7.32048 15.054 7.85338 14.9266 8.45671C14.7795 9.15073 14.5417 9.75517 14.2206 10.2498C13.9251 10.7055 13.5488 11.0834 13.1022 11.3764C12.6756 11.6547 12.1688 11.866 11.5958 12.0012C11.0404 12.134 10.4075 12.2012 9.71311 12.2012H9.26573C8.94589 12.2012 8.63505 12.3071 8.39125 12.4969C8.14675 12.6907 7.9848 12.9554 7.93523 13.245L7.90154 13.4135L7.33525 16.7116L7.3095 16.8327C7.30279 16.8712 7.29115 16.8903 7.27404 16.9033C7.25869 16.915 7.23664 16.9229 7.21511 16.9229H4.45304Z" fill="#253B80"/>
<path d="M14.1239 4.81953C14.1068 4.92036 14.0872 5.02345 14.0652 5.12935C13.307 8.70704 10.7135 9.94298 7.40104 9.94298H5.71454C5.30949 9.94298 4.96814 10.2134 4.90498 10.5806L3.79694 17.0414C3.75584 17.2825 3.95818 17.5 4.2228 17.5H7.21421C7.56845 17.5 7.86923 17.2634 7.92498 16.9423L7.95444 16.8026L8.51772 13.5172L8.55389 13.3371C8.60893 13.0149 8.91041 12.7783 9.26465 12.7783H9.71203C12.6101 12.7783 14.879 11.6967 15.5421 8.56677C15.8191 7.25929 15.6756 6.16757 14.9426 5.39975C14.7209 5.16822 14.4457 4.97613 14.1239 4.81953Z" fill="#179BD7"/>
<path d="M13.3293 4.52796C13.2136 4.49697 13.094 4.46881 12.9714 4.44346C12.8483 4.41868 12.7219 4.39671 12.5921 4.37756C12.1373 4.30996 11.6391 4.27785 11.1053 4.27785H6.59975C6.48878 4.27785 6.38347 4.30094 6.28908 4.34263C6.08127 4.43445 5.92691 4.61528 5.88951 4.83666L4.93089 10.417L4.90337 10.5798C4.96653 10.2125 5.30788 9.94208 5.71293 9.94208H7.39942C10.7119 9.94208 13.3055 8.70559 14.0636 5.12847C14.0861 5.02256 14.1052 4.91948 14.1223 4.81865C13.9305 4.72513 13.7227 4.64514 13.499 4.57697C13.444 4.56007 13.387 4.54374 13.3293 4.52796Z" fill="#222D65"/>
<path d="M5.89177 4.83704C5.92917 4.61565 6.08371 4.43482 6.29134 4.34356C6.38643 4.30187 6.49122 4.27878 6.602 4.27878H11.1077C11.6416 4.27878 12.1398 4.31089 12.5944 4.37849C12.7244 4.39764 12.8507 4.41961 12.9738 4.44439C13.0964 4.46975 13.2159 4.49792 13.3318 4.52889C13.3893 4.54467 13.4463 4.561 13.502 4.57734C13.7257 4.6455 13.9335 4.72606 14.1253 4.81901C14.3509 3.49688 14.1235 2.59669 13.3459 1.78155C12.4885 0.884186 10.941 0.5 8.96098 0.5H3.21243C2.80792 0.5 2.46303 0.770383 2.4004 1.13824L0.00614365 15.089C-0.0411347 15.365 0.190494 15.6141 0.493217 15.6141H4.04227L5.89177 4.83704Z" fill="#253B80"/>
<path fill-rule="evenodd" clip-rule="evenodd" d="M28.3775 4.1467H24.1684C23.8803 4.1467 23.6353 4.33912 23.5904 4.60041L21.888 14.5219C21.8542 14.7177 22.0191 14.8942 22.2352 14.8942H24.2447C24.5327 14.8942 24.7777 14.7018 24.8226 14.44L25.2818 11.764C25.326 11.502 25.5716 11.3098 25.8591 11.3098H27.1915C29.9643 11.3098 31.5644 10.0764 31.9825 7.63242C32.1708 6.56319 31.9905 5.72304 31.4456 5.1345C30.8475 4.48862 29.7863 4.1467 28.3775 4.1467ZM28.8632 7.77039C28.633 9.15876 27.479 9.15876 26.3631 9.15876H25.728L26.1736 6.56581C26.2 6.40925 26.3477 6.29379 26.5201 6.29379H26.8112C27.5713 6.29379 28.2884 6.29379 28.6589 6.692C28.8797 6.92972 28.9475 7.28264 28.8632 7.77039ZM40.9598 7.72588H38.9441C38.7724 7.72588 38.624 7.84134 38.5975 7.99816L38.5083 8.51628L38.3674 8.32856C37.931 7.7463 36.9581 7.55178 35.9868 7.55178C33.7592 7.55178 31.8569 9.10247 31.4864 11.2778C31.2938 12.3628 31.5675 13.4003 32.2371 14.124C32.8515 14.7892 33.7305 15.0665 34.776 15.0665C36.5707 15.0665 37.5661 14.0056 37.5661 14.0056L37.4761 14.5206C37.4422 14.7175 37.6072 14.8939 37.8219 14.8939H39.6377C39.9265 14.8939 40.17 14.7015 40.2156 14.4397L41.305 8.09817C41.3395 7.90313 41.1751 7.72588 40.9598 7.72588ZM38.15 11.332C37.9555 12.3905 37.0415 13.1011 35.876 13.1011C35.2907 13.1011 34.8228 12.9285 34.5225 12.6015C34.2246 12.2769 34.1113 11.8146 34.2061 11.2998C34.3878 10.2502 35.3172 9.51665 36.465 9.51665C37.0372 9.51665 37.5026 9.69128 37.8091 10.0212C38.1161 10.3544 38.238 10.8194 38.15 11.332ZM49.6693 7.72562H51.695C51.9787 7.72562 52.1442 8.01806 51.9829 8.23196L45.2461 17.1706C45.137 17.3154 44.9573 17.4015 44.7653 17.4015H42.7422C42.4574 17.4015 42.291 17.1067 42.456 16.8923L44.5537 14.1706L42.3227 8.15211C42.2455 7.94292 42.4135 7.72562 42.6556 7.72562H44.6459C44.9046 7.72562 45.1327 7.88166 45.2073 8.10917L46.3913 11.7441L49.1851 7.96151C49.2945 7.81385 49.4762 7.72562 49.6693 7.72562Z" fill="#253B80"/>
<path fill-rule="evenodd" clip-rule="evenodd" d="M71.6315 14.521L73.359 4.4181C73.3855 4.26127 73.5333 4.14581 73.705 4.14529H75.6498C75.8646 4.14529 76.0295 4.32227 75.9956 4.51811L74.292 14.4391C74.2476 14.7009 74.0027 14.8933 73.7141 14.8933H71.9773C71.7626 14.8933 71.5976 14.7169 71.6315 14.521ZM58.4019 4.14582H54.1919C53.9046 4.14582 53.6596 4.33824 53.6146 4.59953L51.9122 14.521C51.8783 14.7169 52.0432 14.8933 52.2583 14.8933H54.4184C54.6192 14.8933 54.7909 14.7588 54.8222 14.5755L55.3053 11.7631C55.3497 11.5011 55.5952 11.3089 55.8826 11.3089H57.2145C59.9878 11.3089 61.5876 10.0755 62.006 7.63154C62.1948 6.56231 62.0134 5.72216 61.4688 5.13362C60.871 4.48774 59.8106 4.14582 58.4019 4.14582ZM58.8875 7.76951C58.6579 9.15788 57.5038 9.15788 56.3873 9.15788H55.7528L56.1991 6.56493C56.2256 6.40837 56.372 6.29291 56.5448 6.29291H56.8359C57.5955 6.29291 58.3133 6.29291 58.6836 6.69112C58.9046 6.92884 58.9718 7.28176 58.8875 7.76951ZM70.983 7.725H68.9687C68.7956 7.725 68.6486 7.84046 68.6227 7.99728L68.5335 8.5154L68.392 8.32768C67.9556 7.74542 66.9833 7.5509 66.012 7.5509C63.7844 7.5509 61.8827 9.10159 61.5121 11.277C61.3202 12.3619 61.5927 13.3994 62.2623 14.1231C62.8778 14.7883 63.7557 15.0656 64.8012 15.0656C66.5959 15.0656 67.5911 14.0047 67.5911 14.0047L67.5013 14.5197C67.4675 14.7166 67.6324 14.8931 67.8485 14.8931H69.6634C69.9508 14.8931 70.1958 14.7006 70.2408 14.4388L71.3308 8.09729C71.3641 7.90225 71.1992 7.725 70.983 7.725ZM68.1735 11.3312C67.9801 12.3896 67.065 13.1002 65.8992 13.1002C65.3151 13.1002 64.8462 12.9277 64.5458 12.6007C64.2478 12.276 64.1359 11.8137 64.2296 11.299C64.4122 10.2494 65.3404 9.51577 66.4882 9.51577C67.0607 9.51577 67.5258 9.6904 67.8326 10.0203C68.1408 10.3536 68.2627 10.8185 68.1735 11.3312Z" fill="#179BD7"/>
</svg>
