<svg width="96" height="12" viewBox="0 0 96 12" fill="none" xmlns="http://www.w3.org/2000/svg">
<g clip-path="url(#clip0_4847_14420)">
<path d="M0.947507 0.633974C0.578478 0.800918 0.249344 1.14462 0.109711 1.50797C0.039895 1.69456 0 3.44255 0 6.64394V11.4951H2.29396V8.45085H5.34593L6.14383 9.97299L6.93176 11.4951H8.25827C8.97638 11.4951 9.5748 11.4657 9.5748 11.4362C9.5748 11.3969 9.16588 10.5917 8.65722 9.64892L7.74961 7.92056L7.98898 7.77326C9.33543 6.89926 9.93386 5.18073 9.5748 3.21669C9.34541 2.01862 8.75696 1.17409 7.84934 0.781278C7.34068 0.555413 7.25092 0.545592 4.28871 0.525952C1.89501 0.506311 1.18688 0.525952 0.947507 0.633974ZM6.73228 2.85334C6.89186 2.91226 7.05144 3.08902 7.14121 3.31489C7.33071 3.7568 7.35066 4.88612 7.1811 5.22001C6.75223 6.03509 6.22362 6.19221 3.96955 6.19221H2.29396V2.75514H4.37848C5.52546 2.75514 6.58268 2.79442 6.73228 2.85334ZM12.9659 0.584873C11.9785 0.879479 11.2703 1.57671 10.9711 2.52927C10.7318 3.29525 10.4724 5.10217 10.4724 5.97616C10.4724 6.8207 10.7118 8.53924 10.9213 9.23647C11.2903 10.4444 11.9186 11.063 13.0756 11.3576C13.5743 11.4853 14.1029 11.5049 15.7984 11.4755C17.7433 11.446 17.9428 11.4166 18.4315 11.2103C19.8378 10.5917 20.4462 9.02043 20.4462 5.9958C20.4362 2.81406 19.8079 1.24283 18.3218 0.702716C17.7932 0.516132 17.5638 0.496491 15.4793 0.506311C14.2325 0.506311 13.1055 0.545592 12.9659 0.584873ZM17.6037 2.981C18.2719 3.88446 18.2619 8.33301 17.5837 8.99097C17.3843 9.19719 13.5444 9.20701 13.3748 9.01061C12.906 8.45085 12.7365 5.22001 13.0955 3.7077C13.2451 3.10867 13.3249 2.92208 13.4945 2.85334C13.6142 2.80424 14.5617 2.77478 15.589 2.7846C17.2745 2.80424 17.484 2.82388 17.6037 2.981ZM22.6005 0.712536C22.3811 0.840199 22.1118 1.09552 22.0021 1.28211C21.8026 1.61599 21.7927 1.79276 21.7627 5.72084C21.7428 8.46068 21.7727 9.94353 21.8425 10.2185C22.0121 10.8273 22.4509 11.2693 23.0493 11.3871C23.6677 11.5246 28.0661 11.5246 28.8541 11.3969C30.39 11.1514 31.178 10.2676 31.2877 8.64726C31.3575 7.73398 31.2079 7.05639 30.8189 6.44753L30.5297 6.00562L30.8987 5.29857C31.2577 4.62098 31.2677 4.55223 31.2677 3.59968C31.2677 2.7846 31.2178 2.51945 31.0383 2.11683C30.7491 1.49815 30.4 1.1348 29.7717 0.810738L29.273 0.545592L26.1312 0.516132C23.0194 0.496491 22.9895 0.496491 22.6005 0.712536ZM28.7743 2.87298C28.9139 3.01046 29.0037 3.66842 28.9139 3.97284C28.864 4.14961 28.7045 4.39511 28.5648 4.53259C28.3155 4.76828 28.2756 4.76828 26.221 4.79774L24.1365 4.8272V2.74532L26.4205 2.77478C27.6772 2.79442 28.7344 2.8337 28.7743 2.87298ZM28.3354 7.25279C28.7344 7.40991 28.9538 7.83218 28.9438 8.39193C28.9339 8.74546 28.884 8.92222 28.7643 9.01061C28.6346 9.10881 28.0063 9.13827 26.3606 9.13827H24.1365V7.05639L26.1113 7.09567C27.1885 7.12513 28.1958 7.19387 28.3354 7.25279ZM34.6289 0.702716C33.6614 1.07588 33.1727 1.74366 32.7937 3.21669C32.6042 3.96302 32.5743 4.35583 32.5743 5.9958C32.5743 7.78308 32.5942 7.97949 32.8436 8.89276C33.1528 10.0024 33.442 10.4836 34.0205 10.9059C34.7386 11.4067 34.958 11.446 37.5013 11.446C40.0446 11.446 40.264 11.4067 40.9822 10.9059C41.5606 10.4836 41.8499 10.0024 42.1591 8.89276C42.4084 7.97949 42.4283 7.78308 42.4283 5.9958C42.4283 4.35583 42.3984 3.96302 42.2089 3.21669C41.8299 1.72402 41.3412 1.06606 40.3438 0.702716C39.8352 0.516132 39.5858 0.496491 37.4714 0.506311C35.3869 0.506311 35.1076 0.525952 34.6289 0.702716ZM39.4362 2.85334C39.7055 2.95154 39.8252 3.25597 40.0147 4.36565C40.2541 5.73066 40.0446 8.30355 39.6457 8.90258C39.4961 9.13827 39.4861 9.13827 37.5013 9.13827C35.1675 9.13827 35.3071 9.20701 35.0478 7.90092C34.6787 6.09401 34.978 3.0792 35.5365 2.85334C35.8357 2.7355 39.1171 2.7355 39.4362 2.85334Z" fill="#276EB8"/>
<path d="M44.7369 0.852808L44.4277 1.15723V10.8792L44.717 11.164C44.9763 11.4095 45.086 11.4488 45.5947 11.4488C46.0834 11.4488 46.223 11.4095 46.4025 11.2229C46.7516 10.8596 46.8214 10.4373 46.8214 8.72861V7.12792H48.2876L49.0256 7.75641C50.5017 9.00358 51.0104 9.67135 51.0104 10.3391C51.0104 10.7123 51.0603 10.8301 51.3495 11.1149C51.6487 11.4095 51.7485 11.4488 52.1973 11.4488C52.6162 11.4488 52.7558 11.3997 53.0251 11.164C53.3443 10.8891 53.3542 10.8498 53.3443 10.1329C53.3343 9.51423 53.2844 9.28836 53.0251 8.76789C52.676 8.08048 51.6587 6.85295 51.0204 6.35212L50.6015 6.02805L51.2498 5.44866C52.0277 4.74161 52.7458 3.82833 53.085 3.11145C53.2745 2.69901 53.3343 2.4044 53.3443 1.85447C53.3542 1.14742 53.3443 1.10813 53.0251 0.833168C52.7359 0.577843 52.6262 0.548382 52.0676 0.548382C51.4892 0.548382 51.3994 0.577843 51.2199 0.803707C51.0802 0.980471 51.0104 1.20634 51.0104 1.50094C51.0104 1.73663 50.9506 2.07051 50.8708 2.24728C50.7012 2.65973 49.9432 3.4748 49.0256 4.2506L48.2876 4.86927H46.8214V3.26858C46.8214 2.39458 46.7716 1.51076 46.7217 1.31436C46.5721 0.784067 46.213 0.548382 45.5647 0.548382C45.1159 0.548382 44.9962 0.587663 44.7369 0.852808ZM57.4335 0.685865C56.0871 1.10813 55.349 2.05087 54.8304 3.97563C54.591 4.83981 54.571 5.13442 54.5311 7.62875C54.4713 10.5748 54.5112 10.8989 54.97 11.2524C55.2991 11.5077 56.1469 11.5175 56.4561 11.272C56.8151 10.9873 56.8949 10.7123 56.8949 9.69099V8.69915H62.0813V9.78919C62.0813 10.8596 62.0813 10.8792 62.3705 11.164C62.6298 11.4095 62.7395 11.4488 63.2283 11.4488C63.7369 11.4488 63.8267 11.4193 64.096 11.1346L64.3852 10.8203L64.3553 7.67785C64.3154 4.77107 64.2955 4.46664 64.096 3.80869C63.6172 2.2571 62.9191 1.2849 61.9815 0.852808C61.4629 0.617124 61.3233 0.597484 59.6377 0.577843C58.3611 0.558203 57.7227 0.587663 57.4335 0.685865ZM60.8745 2.91505C61.423 3.10163 61.8918 4.28988 62.0214 5.77273L62.0713 6.4405H56.865L56.9348 5.65489C57.0545 4.27024 57.6031 2.97397 58.1117 2.87577C58.6004 2.78739 60.5752 2.81685 60.8745 2.91505ZM67.517 0.685865C66.5395 0.990292 65.991 1.46166 65.6519 2.31602C65.4823 2.74811 65.4325 3.06235 65.4325 3.83815C65.4325 5.40938 65.9112 6.30302 67.0382 6.84313C67.4871 7.05918 67.6666 7.07882 69.6314 7.12792C71.6661 7.17702 71.7558 7.18684 71.9752 7.40288C72.2645 7.68767 72.2944 8.52239 72.0251 8.92501L71.8556 9.19016H69.1726C66.6393 9.19016 66.4797 9.19998 66.2403 9.38656C65.6818 9.81865 65.6619 10.7614 66.1905 11.2033L66.4897 11.4488H69.392C71.0078 11.4488 72.464 11.3997 72.6634 11.3506C73.212 11.2033 73.8004 10.6337 74.1695 9.89721C74.4787 9.27854 74.4986 9.19016 74.4986 8.15904C74.4986 7.19666 74.4687 7.0199 74.2393 6.5387C73.9101 5.85129 73.4613 5.34064 72.9726 5.10496C72.6535 4.94783 72.2844 4.90855 70.3296 4.86927C67.6865 4.81035 67.7663 4.84963 67.7663 3.83815C67.7663 2.81685 67.6167 2.86595 70.7983 2.80703L73.5511 2.75793L73.8204 2.49278C74.0598 2.2571 74.0897 2.13925 74.1296 1.39292L74.1794 0.548382L71.0477 0.558203C68.8136 0.558203 67.8062 0.597484 67.517 0.685865ZM77.391 0.685865C77.1716 0.754606 76.8624 0.882269 76.6928 0.960831C75.4062 1.6286 74.8676 3.86761 75.6057 5.45848C75.9149 6.12626 76.254 6.47978 76.8923 6.81367C77.371 7.069 77.4508 7.07882 79.3857 7.10828C80.4829 7.1181 81.5002 7.18684 81.6498 7.23594C81.9989 7.37342 82.1684 7.87425 82.0787 8.46346C81.9689 9.2098 82.0487 9.19016 79.0267 9.19016H76.3238L76.0346 9.47495C75.7852 9.73027 75.7453 9.83829 75.7453 10.3195C75.7453 10.8007 75.7852 10.9087 76.0346 11.164L76.3238 11.4488H79.3359C82.6871 11.4488 82.7668 11.439 83.465 10.781C84.0734 10.2016 84.3527 9.51423 84.4025 8.3849C84.4624 7.07882 84.213 6.31284 83.475 5.59597C83.1458 5.2719 82.8167 5.04603 82.5674 4.97729C82.3479 4.91837 81.3506 4.86927 80.3233 4.86927C79.296 4.86927 78.3285 4.83981 78.159 4.81035C77.7999 4.74161 77.6403 4.43718 77.6403 3.83815C77.6403 3.23912 77.7999 2.93469 78.159 2.86595C78.3285 2.83649 79.5353 2.80703 80.8519 2.80703C83.9537 2.80703 84.0235 2.76775 84.0235 1.2849V0.548382L80.9117 0.558203C78.6876 0.558203 77.6703 0.597484 77.391 0.685865ZM88.3222 0.744786C88.033 0.842988 87.634 1.04921 87.4445 1.19652C86.6466 1.79555 85.9285 3.36678 85.729 4.96747C85.5794 6.08698 85.5894 10.4471 85.729 10.8498C85.8687 11.2328 86.2676 11.4488 86.8561 11.4488C87.2151 11.4488 87.3747 11.3899 87.634 11.164L87.9632 10.8792L87.9931 9.78919L88.033 8.69915H93.0797L93.1196 9.78919L93.1495 10.8792L93.4787 11.164C93.738 11.3997 93.8876 11.4488 94.2965 11.4488C94.7054 11.4488 94.855 11.3997 95.1143 11.164L95.4435 10.8792L95.4335 7.79569C95.4235 4.97729 95.4136 4.66305 95.2141 3.95599C94.7653 2.33566 94.097 1.35364 93.1296 0.882269C92.5611 0.607304 92.5112 0.597484 90.7059 0.577843C89.0802 0.548382 88.801 0.568023 88.3222 0.744786ZM92.3117 3.19984C92.7107 3.66139 93.0099 4.64341 93.0697 5.62543L93.1296 6.4405H88.013V5.84147C88.013 4.59431 88.5716 3.14092 89.1301 2.90523C89.2598 2.85613 89.9579 2.82667 90.696 2.83649L92.0225 2.85613L92.3117 3.19984Z" fill="#D61E2F"/>
</g>
<defs>
<clipPath id="clip0_4847_14420">
<rect width="96" height="12" fill="white"/>
</clipPath>
</defs>
</svg>
