<svg width="22" height="23" viewBox="0 0 22 23" fill="none" xmlns="http://www.w3.org/2000/svg">
<path d="M6.2181 1.91859C6.01417 1.71466 5.73759 1.6001 5.44919 1.6001C3.04699 1.6001 1.09961 3.54747 1.09961 5.94968V8.00139C1.09961 9.31453 1.4159 10.6083 2.02172 11.7734C3.95981 15.5005 6.99923 18.5399 10.7263 20.478C11.8914 21.0838 13.1852 21.4001 14.4983 21.4001H17.4744C19.3661 21.4001 20.8996 19.8666 20.8996 17.9749C20.8996 17.116 20.4703 16.3139 19.7557 15.8375C19.3793 15.5866 17.7913 14.5279 17.5883 14.4776C17.3987 14.4306 17.2005 14.4306 17.0109 14.4776C16.808 14.5279 15.0762 15.7617 14.5328 16.0031C13.9893 16.2445 13.3755 16.2756 12.8105 16.0902C12.6162 16.0265 11.4485 15.4935 10.6608 14.9677C9.22362 14.0083 8.47741 13.2853 7.53198 11.8389C7.10188 11.1808 6.64994 10.2174 6.59259 10.0585C6.35843 9.40967 6.44538 8.44818 6.93202 7.80115C7.41866 7.15412 8.85479 5.84491 8.94382 5.57092C9.02213 5.32991 9.02213 5.07029 8.94382 4.82928C8.88103 4.63602 6.2181 1.91859 6.2181 1.91859Z" fill="#0A2B49" stroke="#0A2B49" stroke-width="2" stroke-miterlimit="1.41421" stroke-linejoin="round"/>
</svg>
