<svg width="20" height="20" viewBox="0 0 20 20" fill="none" xmlns="http://www.w3.org/2000/svg">
<path d="M13.2749 10.4516L6.30862 17.0891C6.19239 17.1999 6.03796 17.2617 5.87737 17.2617C5.71679 17.2617 5.56236 17.1999 5.44613 17.0891L5.43862 17.0816C5.38208 17.0279 5.33706 16.9632 5.30629 16.8916C5.27552 16.8199 5.25966 16.7427 5.25966 16.6647C5.25966 16.5867 5.27552 16.5096 5.30629 16.4379C5.33706 16.3662 5.38208 16.3016 5.43862 16.2478L11.9986 9.99785L5.43862 3.75035C5.38208 3.69663 5.33706 3.63198 5.30629 3.56031C5.27552 3.48864 5.25966 3.41147 5.25966 3.33348C5.25966 3.25548 5.27552 3.17831 5.30629 3.10664C5.33706 3.03497 5.38208 2.97032 5.43862 2.9166L5.44613 2.9091C5.56236 2.79829 5.71679 2.73648 5.87737 2.73648C6.03796 2.73648 6.19239 2.79829 6.30862 2.9091L13.2749 9.5466C13.3361 9.60497 13.3849 9.67518 13.4182 9.75296C13.4516 9.83074 13.4688 9.91448 13.4688 9.9991C13.4688 10.0837 13.4516 10.1675 13.4182 10.2452C13.3849 10.323 13.3361 10.3932 13.2749 10.4516Z" fill="#0A2B49"/>
</svg>
