<svg width="40" height="40" viewBox="0 0 40 40" fill="none" xmlns="http://www.w3.org/2000/svg">
<rect width="40" height="40" rx="20" fill="#FF0000"/>
<path fill-rule="evenodd" clip-rule="evenodd" d="M29.7816 11.7835C30.8525 12.0718 31.6968 12.9161 31.9851 13.9869C32.5205 15.9432 32.4999 20.0207 32.4999 20.0207C32.4999 20.0207 32.4999 24.0775 31.9851 26.0338C31.6968 27.1047 30.8525 27.949 29.7816 28.2373C27.8253 28.7521 19.9999 28.7521 19.9999 28.7521C19.9999 28.7521 12.1952 28.7521 10.2183 28.2167C9.14744 27.9284 8.30313 27.0841 8.01482 26.0132C7.5 24.0775 7.5 20.0001 7.5 20.0001C7.5 20.0001 7.5 15.9432 8.01482 13.9869C8.30313 12.9161 9.16803 12.0512 10.2183 11.7629C12.1746 11.248 19.9999 11.248 19.9999 11.248C19.9999 11.248 27.8253 11.248 29.7816 11.7835ZM24.0156 20.0001L17.5082 23.748V16.2521L24.0156 20.0001Z" fill="white"/>
</svg>
