<svg width="109" height="109" viewBox="0 0 109 109" fill="none" xmlns="http://www.w3.org/2000/svg">
<rect width="109" height="109" rx="54.5" fill="#32B4FF"/>
<path d="M37.54 72.5C37.06 72.5 36.88 72.26 37 71.78L50.14 33.74C50.26 33.38 50.5 33.2 50.86 33.2H57.28C57.68 33.2 57.94 33.38 58.06 33.74L71.32 71.78C71.4 71.98 71.38 72.16 71.26 72.32C71.18 72.44 71.02 72.5 70.78 72.5H65.62C65.22 72.5 64.96 72.32 64.84 71.96L56.44 46.04C56.04 44.8 55.64 43.56 55.24 42.32C54.84 41.04 54.44 39.78 54.04 38.54H53.92C53.56 39.78 53.18 41.02 52.78 42.26C52.38 43.46 51.98 44.68 51.58 45.92L43.3 71.96C43.18 72.32 42.92 72.5 42.52 72.5H37.54ZM44.92 63.74L46.24 58.64H61.78L63.16 63.74H44.92Z" fill="white"/>
</svg>
