<svg width="40" height="40" viewBox="0 0 40 40" fill="none" xmlns="http://www.w3.org/2000/svg">
<g clip-path="url(#clip0_2693_61204)">
<rect width="40" height="40" rx="20" fill="white"/>
<path d="M10.143 39.8585C7.76414 39.7503 6.4719 39.3545 5.61239 39.0192C4.4735 38.5758 3.66154 38.048 2.80679 37.1944C1.95203 36.3408 1.42301 35.5289 0.98196 34.39C0.646714 33.5305 0.25084 32.2382 0.142658 29.8594C0.0237763 27.288 0 26.5165 0 20.0018C0 13.4871 0.0261539 12.7167 0.141469 10.143C0.249651 7.76414 0.647903 6.47428 0.980771 5.61239C1.4242 4.4735 1.95322 3.66154 2.8056 2.8056C3.65917 1.95203 4.47113 1.42182 5.6112 0.980771C6.47071 0.645526 7.76295 0.249651 10.1418 0.141469C12.7144 0.0237763 13.4871 0 19.9994 0C26.5141 0 27.2845 0.0261539 29.8582 0.141469C32.237 0.249651 33.5269 0.647903 34.3888 0.980771C35.5277 1.42182 36.3396 1.95203 37.1944 2.8056C38.0492 3.65917 38.5758 4.47232 39.0192 5.6112C39.3545 6.47071 39.7503 7.76295 39.8585 10.1418C39.9762 12.7155 40 13.4859 40 20.0006C40 26.5129 39.9762 27.2856 39.8585 29.8594C39.7503 32.2382 39.3521 33.5305 39.0192 34.39C38.5758 35.5289 38.048 36.3408 37.1944 37.1944C36.3408 38.048 35.5277 38.5758 34.3888 39.0192C33.5293 39.3545 32.237 39.7503 29.8582 39.8585C27.2868 39.9762 26.5141 40 19.9994 40C13.4871 40 12.7144 39.9774 10.143 39.8585Z" fill="white"/>
<path d="M15.6677 20.0005C15.6677 17.6073 17.6073 15.6667 20.0005 15.6667C22.3938 15.6667 24.3344 17.6073 24.3344 20.0005C24.3344 22.3938 22.3938 24.3344 20.0005 24.3344C17.6073 24.3344 15.6677 22.3938 15.6677 20.0005ZM13.3249 20.0005C13.3249 23.6875 16.3136 26.6761 20.0005 26.6761C23.6875 26.6761 26.6761 23.6875 26.6761 20.0005C26.6761 16.3136 23.6875 13.3249 20.0005 13.3249C16.3136 13.3249 13.325 16.3134 13.325 20.0005M25.3804 13.0602C25.3803 13.3688 25.4717 13.6704 25.643 13.927C25.8143 14.1837 26.0579 14.3837 26.3429 14.5019C26.6279 14.6201 26.9416 14.6511 27.2443 14.591C27.5469 14.531 27.8249 14.3825 28.0432 14.1644C28.2615 13.9463 28.4102 13.6684 28.4705 13.3658C28.5308 13.0632 28.5 12.7495 28.3821 12.4644C28.2641 12.1793 28.0642 11.9356 27.8078 11.764C27.5513 11.5925 27.2497 11.5009 26.9411 11.5008H26.9405C26.5269 11.501 26.1303 11.6653 25.8378 11.9577C25.5453 12.2501 25.3808 12.6466 25.3804 13.0602ZM14.7483 30.5827C13.4808 30.525 12.7919 30.3139 12.3341 30.1355C11.7271 29.8992 11.294 29.6178 10.8387 29.1631C10.3834 28.7084 10.1015 28.2757 9.86625 27.6687C9.68778 27.2111 9.47665 26.522 9.41903 25.2545C9.35601 23.8841 9.34342 23.4725 9.34342 20.0007C9.34342 16.529 9.35705 16.1185 9.41903 14.747C9.47676 13.4795 9.68944 12.7917 9.86625 12.3327C10.1025 11.7257 10.384 11.2927 10.8387 10.8373C11.2934 10.382 11.7261 10.1002 12.3341 9.8649C12.7917 9.68643 13.4808 9.4753 14.7483 9.41768C16.1187 9.35465 16.5303 9.34207 20.0005 9.34207C23.4707 9.34207 23.8828 9.35549 25.2543 9.41789C26.5218 9.47561 27.2096 9.6883 27.6685 9.86511C28.2755 10.1004 28.7086 10.3828 29.1639 10.8375C29.6192 11.2923 29.9001 11.7259 30.1363 12.3329C30.3148 12.7905 30.5259 13.4797 30.5836 14.7472C30.6466 16.1187 30.6592 16.5292 30.6592 20.0009C30.6592 23.4727 30.6466 23.8832 30.5836 25.2547C30.5258 26.5222 30.3137 27.2111 30.1363 27.669C29.9001 28.2759 29.6186 28.709 29.1639 29.1633C28.7092 29.6176 28.2755 29.8994 27.6685 30.1357C27.2109 30.3142 26.5218 30.5253 25.2543 30.5829C23.8839 30.646 23.4723 30.6586 20.0005 30.6586C16.5288 30.6586 16.1183 30.646 14.7483 30.5829M14.6407 7.07873C13.2567 7.14176 12.311 7.36121 11.4851 7.68258C10.6303 8.01446 9.90567 8.4597 9.18211 9.18211C8.45855 9.90452 8.01446 10.6292 7.68258 11.4851C7.36121 12.3115 7.14176 13.2567 7.07873 14.6407C7.01466 16.0268 7 16.47 7 20.0005C7 23.531 7.01466 23.9742 7.07873 25.3604C7.14176 26.7445 7.36121 27.6895 7.68258 28.516C8.01446 29.3708 8.45866 30.0968 9.18211 30.8189C9.90556 31.541 10.6292 31.9856 11.4851 32.3185C12.3125 32.6398 13.2567 32.8593 14.6407 32.9223C16.0276 32.9853 16.47 33.001 20.0005 33.001C23.531 33.001 23.9742 32.9864 25.3604 32.9223C26.7445 32.8593 27.6895 32.6398 28.516 32.3185C29.3708 31.9856 30.0954 31.5413 30.8189 30.8189C31.5425 30.0965 31.9856 29.3708 32.3185 28.516C32.6398 27.6895 32.8603 26.7444 32.9223 25.3604C32.9853 23.9732 33 23.531 33 20.0005C33 16.47 32.9853 16.0268 32.9223 14.6407C32.8593 13.2566 32.6398 12.311 32.3185 11.4851C31.9856 10.6303 31.5413 9.90567 30.8189 9.18211C30.0965 8.45855 29.3708 8.01446 28.517 7.68258C27.6895 7.36121 26.7444 7.14072 25.3614 7.07873C23.975 7.01539 23.5321 7 20.0021 7C16.4721 7 16.0281 7.01466 14.6412 7.07873" fill="url(#paint0_radial_2693_61204)"/>
<path d="M15.6677 20.0005C15.6677 17.6073 17.6073 15.6667 20.0005 15.6667C22.3938 15.6667 24.3344 17.6073 24.3344 20.0005C24.3344 22.3938 22.3938 24.3344 20.0005 24.3344C17.6073 24.3344 15.6677 22.3938 15.6677 20.0005ZM13.3249 20.0005C13.3249 23.6875 16.3136 26.6761 20.0005 26.6761C23.6875 26.6761 26.6761 23.6875 26.6761 20.0005C26.6761 16.3136 23.6875 13.3249 20.0005 13.3249C16.3136 13.3249 13.325 16.3134 13.325 20.0005M25.3804 13.0602C25.3803 13.3688 25.4717 13.6704 25.643 13.927C25.8143 14.1837 26.0579 14.3837 26.3429 14.5019C26.6279 14.6201 26.9416 14.6511 27.2443 14.591C27.5469 14.531 27.8249 14.3825 28.0432 14.1644C28.2615 13.9463 28.4102 13.6684 28.4705 13.3658C28.5308 13.0632 28.5 12.7495 28.3821 12.4644C28.2641 12.1793 28.0642 11.9356 27.8078 11.764C27.5513 11.5925 27.2497 11.5009 26.9411 11.5008H26.9405C26.5269 11.501 26.1303 11.6653 25.8378 11.9577C25.5453 12.2501 25.3808 12.6466 25.3804 13.0602ZM14.7483 30.5827C13.4808 30.525 12.7919 30.3139 12.3341 30.1355C11.7271 29.8992 11.294 29.6178 10.8387 29.1631C10.3834 28.7084 10.1015 28.2757 9.86625 27.6687C9.68778 27.2111 9.47665 26.522 9.41903 25.2545C9.35601 23.8841 9.34342 23.4725 9.34342 20.0007C9.34342 16.529 9.35705 16.1185 9.41903 14.747C9.47676 13.4795 9.68944 12.7917 9.86625 12.3327C10.1025 11.7257 10.384 11.2927 10.8387 10.8373C11.2934 10.382 11.7261 10.1002 12.3341 9.8649C12.7917 9.68643 13.4808 9.4753 14.7483 9.41768C16.1187 9.35465 16.5303 9.34207 20.0005 9.34207C23.4707 9.34207 23.8828 9.35549 25.2543 9.41789C26.5218 9.47561 27.2096 9.6883 27.6685 9.86511C28.2755 10.1004 28.7086 10.3828 29.1639 10.8375C29.6192 11.2923 29.9001 11.7259 30.1363 12.3329C30.3148 12.7905 30.5259 13.4797 30.5836 14.7472C30.6466 16.1187 30.6592 16.5292 30.6592 20.0009C30.6592 23.4727 30.6466 23.8832 30.5836 25.2547C30.5258 26.5222 30.3137 27.2111 30.1363 27.669C29.9001 28.2759 29.6186 28.709 29.1639 29.1633C28.7092 29.6176 28.2755 29.8994 27.6685 30.1357C27.2109 30.3142 26.5218 30.5253 25.2543 30.5829C23.8839 30.646 23.4723 30.6586 20.0005 30.6586C16.5288 30.6586 16.1183 30.646 14.7483 30.5829M14.6407 7.07873C13.2567 7.14176 12.311 7.36121 11.4851 7.68258C10.6303 8.01446 9.90567 8.4597 9.18211 9.18211C8.45855 9.90452 8.01446 10.6292 7.68258 11.4851C7.36121 12.3115 7.14176 13.2567 7.07873 14.6407C7.01466 16.0268 7 16.47 7 20.0005C7 23.531 7.01466 23.9742 7.07873 25.3604C7.14176 26.7445 7.36121 27.6895 7.68258 28.516C8.01446 29.3708 8.45866 30.0968 9.18211 30.8189C9.90556 31.541 10.6292 31.9856 11.4851 32.3185C12.3125 32.6398 13.2567 32.8593 14.6407 32.9223C16.0276 32.9853 16.47 33.001 20.0005 33.001C23.531 33.001 23.9742 32.9864 25.3604 32.9223C26.7445 32.8593 27.6895 32.6398 28.516 32.3185C29.3708 31.9856 30.0954 31.5413 30.8189 30.8189C31.5425 30.0965 31.9856 29.3708 32.3185 28.516C32.6398 27.6895 32.8603 26.7444 32.9223 25.3604C32.9853 23.9732 33 23.531 33 20.0005C33 16.47 32.9853 16.0268 32.9223 14.6407C32.8593 13.2566 32.6398 12.311 32.3185 11.4851C31.9856 10.6303 31.5413 9.90567 30.8189 9.18211C30.0965 8.45855 29.3708 8.01446 28.517 7.68258C27.6895 7.36121 26.7444 7.14072 25.3614 7.07873C23.975 7.01539 23.5321 7 20.0021 7C16.4721 7 16.0281 7.01466 14.6412 7.07873" fill="url(#paint1_radial_2693_61204)"/>
</g>
<rect x="0.5" y="0.5" width="39" height="39" rx="19.5" stroke="url(#paint2_radial_2693_61204)"/>
<rect x="0.5" y="0.5" width="39" height="39" rx="19.5" stroke="url(#paint3_radial_2693_61204)"/>
<defs>
<radialGradient id="paint0_radial_2693_61204" cx="0" cy="0" r="1" gradientUnits="userSpaceOnUse" gradientTransform="translate(8.68269 32.4314) scale(33.0103 33.0117)">
<stop offset="0.09" stop-color="#FA8F21"/>
<stop offset="0.78" stop-color="#D82D7E"/>
</radialGradient>
<radialGradient id="paint1_radial_2693_61204" cx="0" cy="0" r="1" gradientUnits="userSpaceOnUse" gradientTransform="translate(25.0093 31.5965) scale(29.0494 29.0506)">
<stop offset="0.64" stop-color="#8C3AAA" stop-opacity="0"/>
<stop offset="1" stop-color="#8C3AAA"/>
</radialGradient>
<radialGradient id="paint2_radial_2693_61204" cx="0" cy="0" r="1" gradientUnits="userSpaceOnUse" gradientTransform="translate(2.58876 39.1237) scale(50.7852)">
<stop offset="0.09" stop-color="#FA8F21"/>
<stop offset="0.78" stop-color="#D82D7E"/>
</radialGradient>
<radialGradient id="paint3_radial_2693_61204" cx="0" cy="0" r="1" gradientUnits="userSpaceOnUse" gradientTransform="translate(27.7066 37.8393) scale(44.6914)">
<stop offset="0.64" stop-color="#8C3AAA" stop-opacity="0"/>
<stop offset="1" stop-color="#8C3AAA"/>
</radialGradient>
<clipPath id="clip0_2693_61204">
<rect width="40" height="40" rx="20" fill="white"/>
</clipPath>
</defs>
</svg>
