<svg width="66" height="50" viewBox="0 0 66 50" fill="none" xmlns="http://www.w3.org/2000/svg">
<path d="M6.86357 41.5456C6.86357 42.9494 5.95257 43.7065 5.30859 43.9589L7.03635 47.4289H5.12011L3.62795 44.227H2.10438V47.4289H0.439453V38.8327H3.86356C5.88975 38.8169 6.86357 40.0157 6.86357 41.5456ZM3.58083 42.9336C4.53895 42.9336 5.1044 42.4605 5.1044 41.5772C5.1044 40.6308 4.47613 40.1576 3.61225 40.1576H2.10438V42.9336H3.58083Z" fill="#0A2B49"/>
<path d="M9.92683 44.2744C9.92683 45.4573 10.6337 46.1197 11.7018 46.1197C12.7541 46.1197 13.4609 45.4415 13.4609 44.2744V38.817H15.1572V44.5109C15.1572 46.3248 13.8535 47.5709 11.7018 47.5709C9.54989 47.5709 8.24622 46.3248 8.24622 44.5109V38.817H9.94254V44.2744H9.92683Z" fill="#0A2B49"/>
<path d="M17.9693 44.9684C18.0321 45.6309 18.629 46.2303 19.7442 46.2303C20.7808 46.2303 21.362 45.7571 21.362 45.0473C21.362 44.448 20.9221 44.1325 20.0426 43.9274L18.7232 43.612C17.5452 43.3439 16.5557 42.6814 16.5557 41.246C16.5557 39.5741 17.985 38.6436 19.7442 38.6436C21.5819 38.6436 22.9012 39.653 22.917 41.1988H21.3306C21.2678 40.5521 20.7651 39.9842 19.7442 39.9842C18.8332 39.9842 18.252 40.4259 18.252 41.1199C18.252 41.6404 18.6604 41.9874 19.43 42.1609L20.7651 42.4763C22.0373 42.7603 23.074 43.3596 23.074 44.9054C23.074 46.593 21.7389 47.6025 19.6814 47.6025C17.1997 47.6025 16.3829 46.1988 16.3672 45H17.9693V44.9684Z" fill="#0A2B49"/>
<path d="M25.2102 45.5991C25.7442 45.5991 26.1839 46.0408 26.1839 46.5771C26.1839 47.1133 25.7442 47.555 25.2102 47.555C24.6761 47.555 24.2363 47.1133 24.2363 46.5771C24.2363 46.0408 24.6761 45.5991 25.2102 45.5991Z" fill="#0A2B49"/>
<path d="M28.8854 44.9684C28.9482 45.6309 29.5451 46.2303 30.6603 46.2303C31.697 46.2303 32.2781 45.7571 32.2781 45.0473C32.2781 44.448 31.8383 44.1325 30.9587 43.9274L29.6393 43.612C28.4613 43.3439 27.4718 42.6814 27.4718 41.246C27.4718 39.5741 28.9011 38.6436 30.6603 38.6436C32.498 38.6436 33.8173 39.653 33.833 41.1988H32.2467C32.1838 40.5521 31.6813 39.9842 30.6603 39.9842C29.7493 39.9842 29.1681 40.4259 29.1681 41.1199C29.1681 41.6404 29.5765 41.9874 30.3461 42.1609L31.6813 42.4763C32.9535 42.7603 33.9744 43.3596 33.9744 44.9054C33.9744 46.593 32.6393 47.6025 30.5818 47.6025C28.1001 47.6025 27.2833 46.1988 27.2676 45H28.8854V44.9684Z" fill="#0A2B49"/>
<path d="M36.958 47.4131V40.2364H34.5234V38.8169H41.0889V40.2364H38.6543V47.4131H36.958Z" fill="#0A2B49"/>
<path d="M43.8388 44.2743C43.8388 45.4572 44.5457 46.1197 45.6137 46.1197C46.666 46.1197 47.3729 45.4415 47.3729 44.2743V38.8169H49.0692V44.5109C49.0692 46.3247 47.7655 47.5709 45.6137 47.5709C43.4619 47.5709 42.1582 46.3247 42.1582 44.5109V38.8169H43.8545V44.2743H43.8388Z" fill="#0A2B49"/>
<path d="M53.8913 38.8169C56.4986 38.8169 57.7237 40.3784 57.7237 43.0913C57.7237 45.82 56.4829 47.4131 53.8913 47.4131H50.7656V38.8169H53.8913ZM52.4619 46.025H53.6714C55.1007 46.025 55.9803 45.2995 55.9803 43.1228C55.9803 41.3405 55.3678 40.2049 53.6714 40.2049H52.4619V46.025Z" fill="#0A2B49"/>
<path d="M60.6594 47.4131V44.1481L57.8008 38.8169H59.6699L61.4919 42.4604H61.5547L63.3924 38.8169H65.2301L62.3557 44.1165V47.4131H60.6594Z" fill="#0A2B49"/>
<path d="M13.3989 5.77296C13.3675 5.77296 13.3204 5.77296 13.289 5.75718L11.6711 5.12627L10.0533 5.75718C9.9434 5.80451 9.83346 5.77296 9.73922 5.70987C9.64499 5.64678 9.61358 5.52059 9.62928 5.41018L9.84917 3.84867L8.62402 2.53952C8.54549 2.44488 8.51408 2.33447 8.5612 2.22407C8.60832 2.11366 8.70255 2.03479 8.8125 2.01902L10.5402 1.81397L11.3727 0.252455C11.4198 0.157818 11.5298 0.0947266 11.6554 0.0947266C11.7654 0.0947266 11.8753 0.157818 11.9381 0.252455L12.7706 1.81397L14.4984 2.01902C14.6084 2.03479 14.7183 2.11366 14.7497 2.22407C14.7968 2.33447 14.7654 2.46066 14.6869 2.53952L13.4618 3.84867L13.6816 5.41018C13.6974 5.52059 13.6502 5.631 13.5717 5.70987C13.5403 5.74141 13.4618 5.77296 13.3989 5.77296ZM11.6554 4.44804C11.6868 4.44804 11.734 4.44804 11.7654 4.46381L12.9905 4.95277L12.8335 3.78558C12.8177 3.69094 12.8492 3.5963 12.912 3.51744L13.8073 2.53952L12.535 2.38179C12.4408 2.36602 12.3466 2.30293 12.2994 2.22407L11.6554 1.02533L11.0115 2.22407C10.9644 2.3187 10.8701 2.38179 10.7759 2.38179L9.50363 2.53952L10.3989 3.51744C10.4617 3.58053 10.4931 3.69094 10.4774 3.78558L10.3046 4.95277L11.5298 4.46381C11.5926 4.46381 11.624 4.44804 11.6554 4.44804Z" fill="#0A2B49"/>
<path d="M15.5342 16.9085C15.4085 16.9085 15.2829 16.8296 15.2357 16.6877L11.6546 6.1514L8.08908 16.7034C8.02626 16.8612 7.85349 16.9559 7.69643 16.8927C7.53937 16.8296 7.44514 16.6561 7.50796 16.4984L11.3719 5.07885C11.419 4.95267 11.5289 4.85803 11.6703 4.85803C11.8116 4.85803 11.9216 4.9369 11.9687 5.07885L15.8326 16.4984C15.8954 16.6561 15.8012 16.8454 15.6441 16.8927C15.597 16.9085 15.5656 16.9085 15.5342 16.9085Z" fill="#0A2B49"/>
<path d="M16.3672 26.7189C16.1944 26.7189 16.0531 26.577 16.0531 26.4035V16.6874L14.9379 17.2394C14.8436 17.2867 14.7494 17.2867 14.6551 17.2394L13.2258 16.5297L11.7965 17.2394C11.7022 17.2867 11.608 17.2867 11.5137 17.2394L10.0844 16.5297L8.65509 17.2394C8.56085 17.2867 8.46662 17.2867 8.37238 17.2394L7.25718 16.6874V26.4035C7.25718 26.577 7.11582 26.7189 6.94304 26.7189C6.77027 26.7189 6.62891 26.577 6.62891 26.4035V16.1827C6.62891 16.0723 6.69173 15.9776 6.77027 15.9145C6.86451 15.8515 6.97445 15.8515 7.0687 15.8987L8.49803 16.6085L9.92735 15.8987C10.0216 15.8515 10.1158 15.8515 10.2101 15.8987L11.6394 16.6085L13.0688 15.8987C13.163 15.8515 13.2572 15.8515 13.3515 15.8987L14.7808 16.6085L16.2101 15.8987C16.3043 15.8515 16.43 15.8515 16.5085 15.9145C16.6028 15.9776 16.6499 16.0723 16.6499 16.1827V26.4035C16.6813 26.577 16.5399 26.7189 16.3672 26.7189Z" fill="#0A2B49"/>
<path d="M19.4918 36.1515C19.319 36.1515 19.1776 36.0095 19.1776 35.8361V26.9086L18.0624 27.4606C17.9682 27.508 17.874 27.508 17.7797 27.4606L16.3503 26.7509L14.921 27.4606C14.8268 27.508 14.7326 27.508 14.6383 27.4606L13.209 26.7509L11.7797 27.4606C11.6854 27.508 11.5912 27.508 11.4969 27.4606L10.0676 26.7509L8.63826 27.4606C8.54402 27.508 8.44979 27.508 8.35555 27.4606L6.92622 26.7509L5.49689 27.4606C5.40265 27.508 5.30841 27.508 5.21417 27.4606L4.09898 26.9086V35.8361C4.09898 36.0095 3.95762 36.1515 3.78484 36.1515C3.61206 36.1515 3.4707 36.0095 3.4707 35.8361V26.4039C3.4707 26.2935 3.53353 26.1988 3.61206 26.1357C3.70631 26.0727 3.81626 26.0727 3.9105 26.1199L5.33983 26.8298L6.76915 26.1199C6.8634 26.0727 6.95764 26.0727 7.05188 26.1199L8.4812 26.8298L9.91052 26.1199C10.0048 26.0727 10.099 26.0727 10.1932 26.1199L11.6226 26.8298L13.0519 26.1199C13.1462 26.0727 13.2404 26.0727 13.3346 26.1199L14.764 26.8298L16.1933 26.1199C16.2875 26.0727 16.3818 26.0727 16.476 26.1199L17.9054 26.8298L19.3347 26.1199C19.4289 26.0727 19.5546 26.0727 19.6331 26.1357C19.7274 26.1988 19.7745 26.2935 19.7745 26.4039V35.8361C19.8059 36.0095 19.6645 36.1515 19.4918 36.1515Z" fill="#0A2B49"/>
<path d="M11.6545 24.3532C10.1781 24.3532 8.98438 23.1546 8.98438 21.6719C8.98438 20.1892 10.1781 18.9905 11.6545 18.9905C13.131 18.9905 14.3247 20.1892 14.3247 21.6719C14.3247 23.1546 13.131 24.3532 11.6545 24.3532ZM11.6545 19.6372C10.5393 19.6372 9.61269 20.552 9.61269 21.6877C9.61269 22.8076 10.5236 23.7381 11.6545 23.7381C12.7697 23.7381 13.6965 22.8233 13.6965 21.6877C13.6965 20.552 12.7854 19.6372 11.6545 19.6372Z" fill="#0A2B49"/>
<path d="M0.314137 36.1513C0.141362 36.1513 0 36.0094 0 35.8358V32.6971C0 32.5235 0.141362 32.3816 0.314137 32.3816H3.83248C4.00526 32.3816 4.14662 32.5235 4.14662 32.6971C4.14662 32.8705 4.00526 33.0125 3.83248 33.0125H0.628276V35.8358C0.628276 36.0094 0.486914 36.1513 0.314137 36.1513Z" fill="#0A2B49"/>
<path d="M0.314137 32.839C0.141362 32.839 0 32.6971 0 32.5235V30.1576C0 29.9842 0.141362 29.8422 0.314137 29.8422C0.486914 29.8422 0.628276 29.9842 0.628276 30.1576V32.5235C0.628276 32.6971 0.486914 32.839 0.314137 32.839Z" fill="#0A2B49"/>
<path d="M29.2301 32.8391C29.0574 32.8391 28.916 32.6972 28.916 32.5237V30.1578C28.916 29.9843 29.0574 29.8423 29.2301 29.8423C29.4029 29.8423 29.5443 29.9843 29.5443 30.1578V32.5237C29.5443 32.6972 29.4029 32.8391 29.2301 32.8391Z" fill="#0A2B49"/>
<path d="M32.529 32.839C32.3562 32.839 32.2148 32.6971 32.2148 32.5235V30.1576C32.2148 29.9842 32.3562 29.8422 32.529 29.8422C32.7017 29.8422 32.8432 29.9842 32.8432 30.1576V32.5235C32.8432 32.6971 32.7174 32.839 32.529 32.839Z" fill="#0A2B49"/>
<path d="M42.5025 36.1516C42.3297 36.1516 42.1883 36.0096 42.1883 35.8361V33.0128H19.4919C19.3191 33.0128 19.1777 32.8708 19.1777 32.6973C19.1777 32.5238 19.3191 32.3818 19.4919 32.3818H42.5025C42.6753 32.3818 42.8166 32.5238 42.8166 32.6973V35.8361C42.8166 36.0096 42.6753 36.1516 42.5025 36.1516Z" fill="#0A2B49"/>
<path d="M42.5036 32.8391C42.3308 32.8391 42.1895 32.6972 42.1895 32.5237V30.1578C42.1895 29.9843 42.3308 29.8423 42.5036 29.8423C42.6764 29.8423 42.8178 29.9843 42.8178 30.1578V32.5237C42.8178 32.6972 42.6764 32.8391 42.5036 32.8391Z" fill="#0A2B49"/>
<path d="M25.9313 32.8391C25.7585 32.8391 25.6172 32.6972 25.6172 32.5237V30.1578C25.6172 29.9843 25.7585 29.8423 25.9313 29.8423C26.1041 29.8423 26.2455 29.9843 26.2455 30.1578V32.5237C26.2455 32.6972 26.1041 32.8391 25.9313 32.8391Z" fill="#0A2B49"/>
<path d="M22.6188 32.8391C22.446 32.8391 22.3047 32.6972 22.3047 32.5237V30.1578C22.3047 29.9843 22.446 29.8423 22.6188 29.8423C22.7916 29.8423 22.9329 29.9843 22.9329 30.1578V32.5237C22.9329 32.6972 22.8073 32.8391 22.6188 32.8391Z" fill="#0A2B49"/>
<path d="M6.95867 33.801C6.78589 33.801 6.64453 33.6591 6.64453 33.4857V31.1197C6.64453 30.9462 6.78589 30.8042 6.95867 30.8042C7.13145 30.8042 7.27281 30.9462 7.27281 31.1197V33.4857C7.27281 33.6591 7.13145 33.801 6.95867 33.801Z" fill="#0A2B49"/>
<path d="M10.0993 33.801C9.92651 33.801 9.78516 33.6591 9.78516 33.4857V31.1197C9.78516 30.9462 9.92651 30.8042 10.0993 30.8042C10.272 30.8042 10.4134 30.9462 10.4134 31.1197V33.4857C10.4134 33.6591 10.272 33.801 10.0993 33.801Z" fill="#0A2B49"/>
<path d="M13.2243 33.801C13.0516 33.801 12.9102 33.6591 12.9102 33.4857V31.1197C12.9102 30.9462 13.0516 30.8042 13.2243 30.8042C13.3971 30.8042 13.5385 30.9462 13.5385 31.1197V33.4857C13.5385 33.6591 13.3971 33.801 13.2243 33.801Z" fill="#0A2B49"/>
<path d="M16.3669 33.801C16.1941 33.801 16.0527 33.6591 16.0527 33.4857V31.1197C16.0527 30.9462 16.1941 30.8042 16.3669 30.8042C16.5397 30.8042 16.681 30.9462 16.681 31.1197V33.4857C16.681 33.6591 16.5397 33.801 16.3669 33.801Z" fill="#0A2B49"/>
<path d="M39.1422 32.8548C38.9695 32.8548 38.8281 32.7127 38.8281 32.5393V30.1734C38.8281 29.9998 38.9695 29.8579 39.1422 29.8579C39.315 29.8579 39.4564 29.9998 39.4564 30.1734V32.5393C39.4564 32.7127 39.315 32.8548 39.1422 32.8548Z" fill="#0A2B49"/>
<path d="M35.8434 32.8548C35.6707 32.8548 35.5293 32.7127 35.5293 32.5393V30.1734C35.5293 29.9998 35.6707 29.8579 35.8434 29.8579C36.0163 29.8579 36.1576 29.9998 36.1576 30.1734V32.5393C36.1576 32.7127 36.0163 32.8548 35.8434 32.8548Z" fill="#0A2B49"/>
<path d="M10.1471 16.5616C10.1314 16.5616 10.1157 16.5616 10.1 16.5616C9.92719 16.53 9.80154 16.3723 9.83295 16.1987L11.4036 5.15775C11.435 4.98426 11.5922 4.85807 11.7649 4.88961C11.9377 4.92116 12.0634 5.07889 12.0319 5.25239L10.4613 16.2934C10.4299 16.4512 10.3042 16.5616 10.1471 16.5616Z" fill="#0A2B49"/>
<path d="M13.2881 16.5614C13.131 16.5614 13.0053 16.451 12.9739 16.2933L11.4033 5.25227C11.3719 5.07877 11.4975 4.92104 11.6703 4.88949C11.843 4.85795 12.0001 4.98413 12.0315 5.15763L13.6023 16.1986C13.6337 16.3721 13.508 16.5298 13.3352 16.5614C13.3195 16.5614 13.3038 16.5614 13.2881 16.5614Z" fill="#0A2B49"/>
<path d="M45.4566 27.003H36.6764C36.6293 27.003 36.5822 26.9873 36.535 26.9714C35.1371 26.2302 34.289 25.2049 34.1005 24.0062C33.8963 22.7443 34.4461 21.309 35.5927 20.0787C36.0953 19.5582 36.6764 19.0535 37.3047 18.5172C39.001 17.0819 40.7602 15.5835 40.7602 13.4541C40.7602 13.2806 40.9016 13.1387 41.0744 13.1387C41.2471 13.1387 41.3885 13.2806 41.3885 13.4541C41.3885 15.5835 43.1477 17.0819 44.844 18.5172C45.4723 19.0535 46.0535 19.5425 46.556 20.0787C47.7184 21.309 48.2681 22.7443 48.0483 24.0062C47.8597 25.1891 47.0116 26.2144 45.6137 26.9714C45.5509 26.9873 45.5037 27.003 45.4566 27.003ZM36.7549 26.3721H45.378C46.5718 25.7096 47.2629 24.8895 47.4199 23.9115C47.5927 22.839 47.1058 21.6087 46.0849 20.5203C45.6137 20.0157 45.0325 19.5266 44.42 19.0062C43.1163 17.9021 41.6712 16.6718 41.0587 15.0945C40.4303 16.6718 39.001 17.9021 37.6974 19.0062C37.0848 19.5266 36.5036 20.0157 36.0324 20.5203C35.0115 21.6087 34.5246 22.839 34.6974 23.9115C34.8701 24.8895 35.5613 25.7096 36.7549 26.3721Z" fill="#0A2B49"/>
<path d="M37.398 28.4228C37.2252 28.4228 37.0839 28.2808 37.0839 28.1074V26.6878C37.0839 26.5143 37.2252 26.3723 37.398 26.3723C37.5707 26.3723 37.7122 26.5143 37.7122 26.6878V28.1074C37.7122 28.2808 37.5707 28.4228 37.398 28.4228Z" fill="#0A2B49"/>
<path d="M46.1931 34.3532C46.0203 34.3532 45.8789 34.2112 45.8789 34.0377V30.757H44.7008C44.6223 30.757 44.5438 30.7254 44.481 30.6623C44.4181 30.5992 44.3867 30.5203 44.3867 30.4415L44.4024 26.6875C44.4024 26.514 44.5438 26.3721 44.7165 26.3721C44.8894 26.3721 45.0307 26.514 45.0307 26.6875L45.015 30.126H46.1931C46.3658 30.126 46.5072 30.268 46.5072 30.4415V34.0377C46.5072 34.2112 46.3658 34.3532 46.1931 34.3532Z" fill="#0A2B49"/>
<path d="M41.0583 13.7698C40.8856 13.7698 40.7441 13.6278 40.7441 13.4543V10.8833C40.7441 10.7099 40.8856 10.5679 41.0583 10.5679C41.2311 10.5679 41.3725 10.7099 41.3725 10.8833V13.4543C41.3725 13.6278 41.2311 13.7698 41.0583 13.7698Z" fill="#0A2B49"/>
<path d="M42.0944 12.224H40.0525C39.8798 12.224 39.7384 12.0819 39.7384 11.9085C39.7384 11.735 39.8798 11.593 40.0525 11.593H42.0944C42.2672 11.593 42.4086 11.735 42.4086 11.9085C42.4086 12.0819 42.2672 12.224 42.0944 12.224Z" fill="#0A2B49"/>
<path d="M53.5142 18.2337C53.3728 18.2337 53.2472 18.139 53.2158 17.9971L51.0168 9.18002C50.9697 9.00656 51.0796 8.83303 51.2524 8.8015C51.4252 8.75422 51.598 8.86463 51.6294 9.03809L53.8283 17.8552C53.8754 18.0286 53.7655 18.2022 53.5927 18.2337C53.5613 18.2337 53.5299 18.2337 53.5142 18.2337Z" fill="#0A2B49"/>
<path d="M47.6541 18.2332C47.6227 18.2332 47.607 18.2332 47.5756 18.2175C47.4028 18.1701 47.3086 17.9967 47.34 17.8389L49.539 9.02188C49.5861 8.84842 49.7588 8.75378 49.9159 8.7853C50.0887 8.83259 50.1829 9.00612 50.1515 9.16382L47.9525 17.9809C47.9211 18.1386 47.7954 18.2332 47.6541 18.2332Z" fill="#0A2B49"/>
<path d="M54.2357 36.1515C54.063 36.1515 53.9216 36.0095 53.9216 35.836V32.6183C53.9216 32.4449 54.063 32.3029 54.2357 32.3029C54.4085 32.3029 54.5499 32.4449 54.5499 32.6183V35.836C54.5499 36.0095 54.4085 36.1515 54.2357 36.1515Z" fill="#0A2B49"/>
<path d="M63.0309 36.1513C62.8581 36.1513 62.7168 36.0093 62.7168 35.8358V32.6181C62.7168 32.4447 62.8581 32.3027 63.0309 32.3027C63.2038 32.3027 63.3451 32.4447 63.3451 32.6181V35.8358C63.3451 36.0093 63.2038 36.1513 63.0309 36.1513Z" fill="#0A2B49"/>
<path d="M54.2351 22.6498C54.0623 22.6498 53.9209 22.5079 53.9209 22.3344V18.2334H46.9157C46.7429 18.2334 46.6016 18.0915 46.6016 17.9179C46.6016 17.7445 46.7429 17.6025 46.9157 17.6025H54.2351C54.4079 17.6025 54.5492 17.7445 54.5492 17.9179V22.3344C54.5492 22.5079 54.4079 22.6498 54.2351 22.6498Z" fill="#0A2B49"/>
<path d="M51.3141 9.41643H49.8533C49.8061 9.41643 49.7433 9.40059 49.6962 9.38483C49.1779 9.10096 47.5758 8.21768 48.2826 6.6246C48.4711 6.2145 48.801 5.74131 49.1622 5.25235C49.6805 4.54257 50.2617 3.73816 50.2617 3.23342C50.2617 3.05993 50.403 2.91797 50.5758 2.91797C50.7486 2.91797 50.8899 3.05993 50.8899 3.23342C50.8899 3.73816 51.4711 4.54257 51.9894 5.25235C52.3507 5.75709 52.6963 6.2145 52.869 6.6246C53.5759 8.20191 51.9737 9.0852 51.4554 9.38483C51.424 9.40059 51.3612 9.41643 51.3141 9.41643ZM49.9319 8.78549H51.2355C52.335 8.17032 52.6334 7.61826 52.3193 6.87696C52.1622 6.52996 51.8481 6.08831 51.5025 5.61513C51.1727 5.15772 50.8271 4.68453 50.5915 4.24289C50.3559 4.68453 50.0104 5.15772 49.6805 5.61513C49.335 6.08831 49.0208 6.52996 48.8638 6.87696C48.5182 7.6025 48.8324 8.17032 49.9319 8.78549Z" fill="#0A2B49"/>
<path d="M50.5761 3.47003C50.4033 3.47003 50.262 3.32808 50.262 3.15457V0.315457C50.262 0.141956 50.4033 0 50.5761 0C50.7489 0 50.8903 0.141956 50.8903 0.315457V3.15457C50.8903 3.32808 50.7489 3.47003 50.5761 3.47003Z" fill="#0A2B49"/>
<path d="M51.6436 1.70367H49.5075C49.3347 1.70367 49.1934 1.56171 49.1934 1.38821C49.1934 1.21471 49.3347 1.07275 49.5075 1.07275H51.6436C51.8164 1.07275 51.9578 1.21471 51.9578 1.38821C51.9578 1.56171 51.8321 1.70367 51.6436 1.70367Z" fill="#0A2B49"/>
<path d="M63.0308 32.9337H54.2506C54.2035 32.9337 54.1564 32.9179 54.1093 32.9022C52.7113 32.1608 51.8632 31.1356 51.6747 29.9369C51.4705 28.6751 52.0203 27.2397 53.1669 26.0094C53.6695 25.4889 54.2506 24.9842 54.8789 24.4479C56.5752 23.0126 58.3344 21.5141 58.3344 19.3848C58.3344 19.2113 58.4758 19.0693 58.6486 19.0693C58.8213 19.0693 58.9627 19.2113 58.9627 19.3848C58.9627 21.5141 60.7218 23.0126 62.4182 24.4479C63.0465 24.9842 63.6276 25.4732 64.1303 26.0094C65.2926 27.2397 65.8423 28.6751 65.6224 29.9369C65.4339 31.1199 64.5857 32.1451 63.1878 32.9022C63.125 32.9179 63.0779 32.9337 63.0308 32.9337ZM54.3134 32.3028H62.9365C64.1303 31.6404 64.8213 30.8201 64.9784 29.8422C65.1512 28.7697 64.6643 27.5394 63.6433 26.4511C63.1721 25.9463 62.591 25.4574 61.9784 24.9369C60.6747 23.8328 59.2297 22.6025 58.6172 21.0252C57.9889 22.6025 56.5595 23.8328 55.2559 24.9369C54.6433 25.4574 54.0621 25.9463 53.591 26.4511C52.57 27.5394 52.0831 28.7697 52.2559 29.8422C52.4286 30.8201 53.1198 31.6561 54.3134 32.3028Z" fill="#0A2B49"/>
<path d="M58.6345 19.7003C58.4617 19.7003 58.3203 19.5584 58.3203 19.3849V16.5616C58.3203 16.388 58.4617 16.2461 58.6345 16.2461C58.8073 16.2461 58.9486 16.388 58.9486 16.5616V19.3849C58.9486 19.5584 58.8073 19.7003 58.6345 19.7003Z" fill="#0A2B49"/>
<path d="M59.7653 18.0127H57.5192C57.3464 18.0127 57.2051 17.8708 57.2051 17.6973C57.2051 17.5238 57.3464 17.3818 57.5192 17.3818H59.7653C59.9381 17.3818 60.0794 17.5238 60.0794 17.6973C60.0794 17.8708 59.9381 18.0127 59.7653 18.0127Z" fill="#0A2B49"/>
<path d="M62.2943 32.9336C62.2315 32.9336 62.1844 32.9178 62.1373 32.8863C60.7865 32.0818 60.1425 31.167 60.2054 30.1733C60.3624 28.0125 63.9907 26.4352 64.1477 26.3721C64.3048 26.3089 64.4933 26.3721 64.5561 26.5456C64.619 26.7033 64.5561 26.8926 64.3833 26.9556C63.1896 27.4604 60.9278 28.8011 60.8336 30.2207C60.7865 30.9462 61.3362 31.6718 62.4514 32.35C62.5927 32.4446 62.6556 32.6339 62.5613 32.7759C62.4985 32.8863 62.4043 32.9336 62.2943 32.9336Z" fill="#0A2B49"/>
<path d="M57.8955 32.9338C57.8327 32.9338 57.7856 32.9181 57.7228 32.8865C56.2777 31.9559 55.5395 30.9149 55.5552 29.8108C55.5709 27.6499 58.4452 25.5521 61.2725 23.7856C61.4139 23.6909 61.6181 23.7382 61.7123 23.8802C61.8065 24.0222 61.7594 24.2272 61.6181 24.3219C56.8274 27.3186 56.1991 28.8171 56.1991 29.8108C56.1991 30.6941 56.8117 31.53 58.084 32.3502C58.2253 32.4449 58.2725 32.6341 58.1782 32.7919C58.0997 32.8865 58.0055 32.9338 57.8955 32.9338Z" fill="#0A2B49"/>
<path d="M44.7338 27.0034C44.671 27.0034 44.6238 26.9876 44.5767 26.9561C43.2259 26.1517 42.582 25.2368 42.6448 24.2431C42.8019 22.0823 46.4302 20.505 46.5872 20.4419C46.7443 20.3788 46.9328 20.4419 46.9956 20.6154C47.0584 20.7731 46.9956 20.9624 46.8228 21.0254C45.6291 21.5302 43.3673 22.8709 43.2731 24.2905C43.2259 25.016 43.7756 25.7416 44.8908 26.4198C45.0322 26.5144 45.0951 26.7037 45.0008 26.8457C44.938 26.9403 44.828 27.0034 44.7338 27.0034Z" fill="#0A2B49"/>
<path d="M40.3347 27.0031C40.2719 27.0031 40.2248 26.9874 40.162 26.9559C38.7169 26.0253 37.9787 24.9842 37.9944 23.8801C38.0101 21.7193 40.8844 19.6215 43.7117 17.8549C43.853 17.7602 44.0572 17.8076 44.1514 17.9495C44.2457 18.0915 44.1985 18.2965 44.0572 18.3912C39.2666 21.388 38.6383 22.8864 38.6383 23.8801C38.6383 24.7634 39.2509 25.5994 40.5232 26.4196C40.6646 26.5142 40.7117 26.7035 40.6174 26.8612C40.5389 26.9558 40.4447 27.0031 40.3347 27.0031Z" fill="#0A2B49"/>
<path d="M49.4131 18.1389C49.3974 18.1389 49.3974 18.1389 49.3817 18.1389C49.2089 18.1231 49.0833 17.9654 49.099 17.7919L50.0414 9.11682C50.0571 8.94328 50.2142 8.81711 50.3869 8.83287C50.5597 8.84863 50.6854 9.00641 50.6697 9.17987L49.7273 17.8549C49.7116 18.0127 49.5702 18.1389 49.4131 18.1389Z" fill="#0A2B49"/>
<path d="M51.6125 18.1389C51.4555 18.1389 51.3141 18.0127 51.2984 17.8549L50.513 9.17987C50.4973 9.00641 50.623 8.84863 50.7958 8.83287C50.9685 8.81711 51.1256 8.94328 51.1414 9.11682L51.9267 17.7919C51.9424 17.9654 51.8167 18.1231 51.6439 18.1389C51.6282 18.1389 51.6282 18.1389 51.6125 18.1389Z" fill="#0A2B49"/>
</svg>
