<svg width="24" height="32" viewBox="0 0 24 32" fill="none" xmlns="http://www.w3.org/2000/svg">
<mask id="path-1-inside-1_3813_10219" fill="white">
<path d="M7.5 0C7.5 0 24.2783 6.25023 23.4635 20.0589C22.6488 33.8675 0.5 31.9031 0.5 31.9031C0.5 31.9031 7.49657 27.8633 7.5 21.5C7.50343 15.1367 7.5 0 7.5 0Z"/>
</mask>
<path d="M7.5 0C7.5 0 24.2783 6.25023 23.4635 20.0589C22.6488 33.8675 0.5 31.9031 0.5 31.9031C0.5 31.9031 7.49657 27.8633 7.5 21.5C7.50343 15.1367 7.5 0 7.5 0Z" fill="#5724A7"/>
<path d="M7.5 0L7.84908 -0.937091L6.49967 -1.43977L6.5 0.000226562L7.5 0ZM0.5 31.9031L-3.17693e-05 31.0371L-2.74078 32.6196L0.411656 32.8992L0.5 31.9031ZM7.5 0C7.15092 0.937091 7.15064 0.936989 7.15043 0.936911C7.15045 0.936916 7.1503 0.936861 7.15033 0.936871C7.15038 0.936893 7.15069 0.937008 7.15125 0.937218C7.15237 0.937639 7.15449 0.938438 7.1576 0.939616C7.16381 0.941971 7.17396 0.945842 7.18792 0.951234C7.21585 0.962016 7.25901 0.978875 7.31636 1.00185C7.43107 1.0478 7.60244 1.11818 7.82215 1.21327C8.26175 1.40353 8.89378 1.69228 9.65184 2.08181C11.1707 2.86228 13.1813 4.04004 15.1609 5.63072C19.1375 8.826 22.8452 13.5608 22.4653 20L24.4618 20.1178C24.8966 12.7483 20.6226 7.45366 16.4137 4.07167C14.3006 2.37371 12.1675 1.12587 10.5659 0.302911C9.76375 -0.109279 9.09133 -0.41671 8.61655 -0.622198C8.37907 -0.724981 8.19077 -0.802374 8.0601 -0.85472C7.99476 -0.880896 7.9438 -0.900819 7.90829 -0.914531C7.89053 -0.921387 7.87663 -0.926692 7.86672 -0.93045C7.86176 -0.932329 7.85781 -0.933822 7.85486 -0.934928C7.85339 -0.935482 7.85217 -0.935938 7.85121 -0.936299C7.85072 -0.936479 7.85019 -0.936678 7.84995 -0.936767C7.84949 -0.936941 7.84908 -0.937091 7.5 0ZM22.4653 20C22.2797 23.1446 20.897 25.3578 18.906 26.955C16.8829 28.578 14.205 29.5817 11.4623 30.1824C8.72999 30.7807 6.00756 30.9634 3.95835 30.9944C2.93635 31.0098 2.08792 30.9875 1.4973 30.9615C1.20212 30.9485 0.9717 30.9346 0.816611 30.9241C0.739076 30.9188 0.680402 30.9144 0.641909 30.9114C0.622664 30.9099 0.608466 30.9087 0.599483 30.9079C0.594991 30.9076 0.591803 30.9073 0.58994 30.9071C0.589008 30.9071 0.588408 30.907 0.588141 30.907C0.588007 30.907 0.588058 30.907 0.587991 30.907C0.588126 30.907 0.588344 30.907 0.5 31.9031C0.411656 32.8992 0.412043 32.8992 0.412515 32.8993C0.412785 32.8993 0.413342 32.8993 0.413882 32.8994C0.414962 32.8995 0.416378 32.8996 0.41813 32.8997C0.421632 32.9 0.426473 32.9005 0.43263 32.901C0.444944 32.902 0.462528 32.9034 0.485215 32.9052C0.530587 32.9088 0.596382 32.9137 0.68127 32.9195C0.851023 32.931 1.09726 32.9458 1.4093 32.9596C2.03312 32.987 2.92143 33.0103 3.9886 32.9941C6.11775 32.9619 8.98344 32.7726 11.8902 32.1361C14.7865 31.5017 17.7986 30.4074 20.1575 28.5151C22.5485 26.5969 24.24 23.8774 24.4618 20.1178L22.4653 20ZM0.5 31.9031C1.00003 32.7691 1.00035 32.7689 1.00069 32.7687C1.00084 32.7686 1.00121 32.7684 1.00151 32.7682C1.00211 32.7679 1.00281 32.7675 1.00363 32.767C1.00525 32.7661 1.0073 32.7649 1.00977 32.7634C1.0147 32.7605 1.02131 32.7567 1.02954 32.7518C1.04599 32.7421 1.06892 32.7283 1.0979 32.7107C1.15586 32.6755 1.23808 32.6246 1.34109 32.5584C1.547 32.4262 1.8367 32.2325 2.18231 31.9805C2.87188 31.4779 3.79278 30.7372 4.71683 29.7837C6.54613 27.8961 8.49808 25.0575 8.5 21.5005L6.5 21.4995C6.49849 24.3057 4.95044 26.6688 3.2806 28.3918C2.45508 29.2437 1.62662 29.9107 1.00423 30.3643C0.693855 30.5906 0.436921 30.7622 0.260191 30.8757C0.171885 30.9324 0.103781 30.9745 0.0592463 31.0016C0.0369845 31.0151 0.0206303 31.0249 0.0106054 31.0308C0.00559354 31.0338 0.0021657 31.0358 0.000374734 31.0368C-0.000520706 31.0374 -0.00100672 31.0376 -0.00107676 31.0377C-0.00111175 31.0377 -0.00104272 31.0377 -0.000868797 31.0376C-0.000782073 31.0375 -0.000572383 31.0374 -0.00052923 31.0374C-0.000293851 31.0372 -3.17693e-05 31.0371 0.5 31.9031ZM8.5 21.5005C8.50171 18.3185 8.50171 12.9432 8.50129 8.36368C8.50107 6.07385 8.50075 3.98288 8.50048 2.46436C8.50035 1.70511 8.50023 1.08896 8.50014 0.66263C8.5001 0.449465 8.50006 0.283752 8.50004 0.17133C8.50003 0.115119 8.50002 0.0722308 8.50001 0.0433948C8.50001 0.0289768 8.5 0.0180719 8.5 0.0107712C8.5 0.00712093 8.5 0.00437169 8.5 0.00253492C8.5 0.00161653 8.5 0.000926274 8.5 0.000465548C8.5 0.000235187 8.5 6.21589e-05 8.5 -5.31996e-05C8.5 -0.000168663 8.5 -0.000226562 7.5 0C6.5 0.000226562 6.5 0.000284147 6.5 0.000399296C6.5 0.000514549 6.5 0.000687261 6.5 0.000917411C6.5 0.00137771 6.5 0.00206755 6.5 0.00298551C6.5 0.00482144 6.5 0.00756982 6.5 0.0112193C6.5 0.0185182 6.50001 0.0294214 6.50001 0.0438376C6.50002 0.0726701 6.50003 0.115555 6.50004 0.171762C6.50006 0.284177 6.5001 0.449881 6.50014 0.663039C6.50023 1.08935 6.50035 1.70548 6.50048 2.46472C6.50075 3.98319 6.50107 6.07411 6.50129 8.36387C6.50171 12.9435 6.50171 18.3182 6.5 21.4995L8.5 21.5005Z" fill="#5724A7" mask="url(#path-1-inside-1_3813_10219)"/>
</svg>
