<svg width="25" height="20" viewBox="0 0 25 20" fill="none" xmlns="http://www.w3.org/2000/svg">
<g id="Frame 48096640" clip-path="url(#clip0_4191_7097)">
<g id="Union">
<mask id="path-1-inside-1_4191_7097" fill="white">
<path d="M7.5 -12C7.5 -12 24.2783 -5.74977 23.4635 8.05886C22.6488 21.8675 0.5 19.9031 0.5 19.9031C0.5 19.9031 7.49657 15.8633 7.5 9.5C7.50343 3.13673 7.5 -12 7.5 -12Z"/>
</mask>
<path d="M7.5 -12C7.5 -12 24.2783 -5.74977 23.4635 8.05886C22.6488 21.8675 0.5 19.9031 0.5 19.9031C0.5 19.9031 7.49657 15.8633 7.5 9.5C7.50343 3.13673 7.5 -12 7.5 -12Z" fill="#5724A7"/>
<path d="M7.5 -12L7.84908 -12.9371L6.49967 -13.4398L6.5 -11.9998L7.5 -12ZM0.5 19.9031L-3.17693e-05 19.0371L-2.74078 20.6196L0.411656 20.8992L0.5 19.9031ZM7.5 -12C7.15092 -11.0629 7.15064 -11.063 7.15043 -11.0631C7.15045 -11.0631 7.1503 -11.0631 7.15033 -11.0631C7.15038 -11.0631 7.15069 -11.063 7.15125 -11.0628C7.15237 -11.0624 7.15449 -11.0616 7.1576 -11.0604C7.16381 -11.058 7.17396 -11.0542 7.18792 -11.0488C7.21585 -11.038 7.25901 -11.0211 7.31636 -10.9982C7.43107 -10.9522 7.60244 -10.8818 7.82215 -10.7867C8.26175 -10.5965 8.89378 -10.3077 9.65184 -9.91819C11.1707 -9.13772 13.1813 -7.95996 15.1609 -6.36928C19.1375 -3.174 22.8452 1.56079 22.4653 7.99995L24.4618 8.11776C24.8966 0.748294 20.6226 -4.54634 16.4137 -7.92833C14.3006 -9.62629 12.1675 -10.8741 10.5659 -11.6971C9.76375 -12.1093 9.09133 -12.4167 8.61655 -12.6222C8.37907 -12.725 8.19077 -12.8024 8.0601 -12.8547C7.99476 -12.8809 7.9438 -12.9008 7.90829 -12.9145C7.89053 -12.9214 7.87663 -12.9267 7.86672 -12.9305C7.86176 -12.9323 7.85781 -12.9338 7.85486 -12.9349C7.85339 -12.9355 7.85217 -12.9359 7.85121 -12.9363C7.85072 -12.9365 7.85019 -12.9367 7.84995 -12.9368C7.84949 -12.9369 7.84908 -12.9371 7.5 -12ZM22.4653 7.99995C22.2797 11.1446 20.897 13.3578 18.906 14.955C16.8829 16.578 14.205 17.5817 11.4623 18.1824C8.72999 18.7807 6.00756 18.9634 3.95835 18.9944C2.93635 19.0098 2.08792 18.9875 1.4973 18.9615C1.20212 18.9485 0.9717 18.9346 0.816611 18.9241C0.739076 18.9188 0.680402 18.9144 0.641909 18.9114C0.622664 18.9099 0.608466 18.9087 0.599483 18.9079C0.594991 18.9076 0.591803 18.9073 0.58994 18.9071C0.589008 18.9071 0.588408 18.907 0.588141 18.907C0.588007 18.907 0.588058 18.907 0.587991 18.907C0.588126 18.907 0.588344 18.907 0.5 19.9031C0.411656 20.8992 0.412043 20.8992 0.412515 20.8993C0.412785 20.8993 0.413342 20.8993 0.413882 20.8994C0.414962 20.8995 0.416378 20.8996 0.41813 20.8997C0.421632 20.9 0.426473 20.9005 0.43263 20.901C0.444944 20.902 0.462528 20.9034 0.485215 20.9052C0.530587 20.9088 0.596382 20.9137 0.68127 20.9195C0.851023 20.931 1.09726 20.9458 1.4093 20.9596C2.03312 20.987 2.92143 21.0103 3.9886 20.9941C6.11775 20.9619 8.98344 20.7726 11.8902 20.1361C14.7865 19.5017 17.7986 18.4074 20.1575 16.5151C22.5485 14.5969 24.24 11.8774 24.4618 8.11776L22.4653 7.99995ZM0.5 19.9031C1.00003 20.7691 1.00035 20.7689 1.00069 20.7687C1.00084 20.7686 1.00121 20.7684 1.00151 20.7682C1.00211 20.7679 1.00281 20.7675 1.00363 20.767C1.00525 20.7661 1.0073 20.7649 1.00977 20.7634C1.0147 20.7605 1.02131 20.7567 1.02954 20.7518C1.04599 20.7421 1.06892 20.7283 1.0979 20.7107C1.15586 20.6755 1.23808 20.6246 1.34109 20.5584C1.547 20.4262 1.8367 20.2325 2.18231 19.9805C2.87188 19.4779 3.79278 18.7372 4.71683 17.7837C6.54613 15.8961 8.49808 13.0575 8.5 9.50054L6.5 9.49946C6.49849 12.3057 4.95044 14.6688 3.2806 16.3918C2.45508 17.2437 1.62662 17.9107 1.00423 18.3643C0.693855 18.5906 0.436921 18.7622 0.260191 18.8757C0.171885 18.9324 0.103781 18.9745 0.0592463 19.0016C0.0369845 19.0151 0.0206303 19.0249 0.0106054 19.0308C0.00559354 19.0338 0.0021657 19.0358 0.000374734 19.0368C-0.000520706 19.0374 -0.00100672 19.0376 -0.00107676 19.0377C-0.00111175 19.0377 -0.00104272 19.0377 -0.000868797 19.0376C-0.000782073 19.0375 -0.000572383 19.0374 -0.00052923 19.0374C-0.000293851 19.0372 -3.17693e-05 19.0371 0.5 19.9031ZM8.5 9.50054C8.50171 6.31854 8.50171 0.943229 8.50129 -3.63632C8.50107 -5.92615 8.50075 -8.01712 8.50048 -9.53564C8.50035 -10.2949 8.50023 -10.911 8.50014 -11.3374C8.5001 -11.5505 8.50006 -11.7162 8.50004 -11.8287C8.50003 -11.8849 8.50002 -11.9278 8.50001 -11.9566C8.50001 -11.971 8.5 -11.9819 8.5 -11.9892C8.5 -11.9929 8.5 -11.9956 8.5 -11.9975C8.5 -11.9984 8.5 -11.9991 8.5 -11.9995C8.5 -11.9998 8.5 -11.9999 8.5 -12.0001C8.5 -12.0002 8.5 -12.0002 7.5 -12C6.5 -11.9998 6.5 -11.9997 6.5 -11.9996C6.5 -11.9995 6.5 -11.9993 6.5 -11.9991C6.5 -11.9986 6.5 -11.9979 6.5 -11.997C6.5 -11.9952 6.5 -11.9924 6.5 -11.9888C6.5 -11.9815 6.50001 -11.9706 6.50001 -11.9562C6.50002 -11.9273 6.50003 -11.8844 6.50004 -11.8282C6.50006 -11.7158 6.5001 -11.5501 6.50014 -11.337C6.50023 -10.9106 6.50035 -10.2945 6.50048 -9.53528C6.50075 -8.01681 6.50107 -5.92589 6.50129 -3.63613C6.50171 0.943501 6.50171 6.31819 6.5 9.49946L8.5 9.50054Z" fill="#5724A7" mask="url(#path-1-inside-1_4191_7097)"/>
</g>
</g>
<defs>
<clipPath id="clip0_4191_7097">
<rect width="24" height="20" fill="white" transform="translate(0.5)"/>
</clipPath>
</defs>
</svg>
