<svg width="25" height="24" viewBox="0 0 25 24" fill="none" xmlns="http://www.w3.org/2000/svg">
<path d="M16.5 15C18.1569 15 19.5 13.6569 19.5 12C19.5 10.3431 18.1569 9 16.5 9" stroke="#0A2B49" stroke-width="1.5"/>
<path d="M16.5 18C19.8137 18 22.5 15.3137 22.5 12C22.5 8.68629 19.8137 6 16.5 6" stroke="#0A2B49" stroke-width="1.5"/>
<path d="M11.3 4.40345L7.03323 7.60208C6.6871 7.86156 6.26617 8.00181 5.83358 8.00181H4.5C3.39543 8.00181 2.5 8.89684 2.5 10.0009V13.9991C2.5 15.1032 3.39543 15.9982 4.5 15.9982H5.83358C6.26617 15.9982 6.6871 16.1384 7.03323 16.3979L11.3 19.5966C12.6185 20.585 14.5 19.6446 14.5 17.9973V6.00272C14.5 4.35538 12.6185 3.41504 11.3 4.40345Z" stroke="#0A2B49" stroke-width="1.5" stroke-linecap="round" stroke-linejoin="round"/>
</svg>
